<svg width="64" height="64" viewBox="0 0 64 64" fill="none"
  xmlns="http://www.w3.org/2000/svg">
  <path d="M32 64C14.355 64 0 49.6498 0 32C0 14.3502 14.355 0 32 0C49.645 0 64 14.3502 64 32C64 49.6498 49.645 64 32 64Z" fill="#CB4040"/>
  <path d="M32 64C14.355 64 0 49.6498 0 32C0 14.3502 14.355 0 32 0C32 11.5 32 14.3502 32 32C32 49.6498 32 45 32 64Z" fill="#BB3838"/>
  <rect x="27.4445" y="12.4445" width="8.88889" height="26.6667" rx="4.44444" fill="white"/>
  <rect x="27.4445" y="42.6666" width="8.88889" height="8.88889" rx="4.44444" fill="white"/>
</svg>
