<svg width="20" height="20" viewBox="0 0 20 20" fill="none"
  xmlns="http://www.w3.org/2000/svg">
  <path d="M10.1333 9.05835C10.05 9.05002 9.94996 9.05002 9.85829 9.05835C7.87496 8.99169 6.29996 7.36669 6.29996 5.36669C6.29996 3.32502 7.94996 1.66669 9.99996 1.66669C12.0416 1.66669 13.7 3.32502 13.7 5.36669C13.6916 7.36669 12.1166 8.99169 10.1333 9.05835Z" stroke="#121D3F" stroke-width="1.5" stroke-linecap="round" stroke-linejoin="round"/>
  <path d="M5.96663 12.1333C3.94997 13.4833 3.94997 15.6833 5.96663 17.025C8.2583 18.5583 12.0166 18.5583 14.3083 17.025C16.325 15.675 16.325 13.475 14.3083 12.1333C12.025 10.6083 8.26663 10.6083 5.96663 12.1333Z" stroke="#121D3F" stroke-width="1.5" stroke-linecap="round" stroke-linejoin="round"/>
</svg>
