<svg width="32" height="40" viewBox="0 0 32 40" fill="none" xmlns="http://www.w3.org/2000/svg">
<rect width="32" height="40" fill="#E5E5E5"/>
<g clip-path="url(#clip0_177_469)">
<rect width="375" height="812" transform="translate(-28 -438)" fill="#F3F5FA"/>
<rect x="-12" y="-8" width="343" height="56" rx="8" fill="white"/>
<path d="M22.4178 0H1.68782C1.11068 0 0.642822 0.467857 0.642822 1.37571V39.2857C0.642822 39.5321 1.11068 40 1.68782 40H30.3121C30.8893 40 31.3571 39.5321 31.3571 39.2857V9.27C31.3571 8.77286 31.2907 8.61286 31.1735 8.495L22.8621 0.183571C22.7443 0.0664286 22.5843 0 22.4178 0Z" fill="#E9E9E0"/>
<path d="M22.7856 0.10791V8.57148H31.2492L22.7856 0.10791Z" fill="#D9D7CA"/>
<path d="M9.21423 9.28575H4.92852C4.53423 9.28575 4.21423 8.96575 4.21423 8.57146C4.21423 8.17718 4.53423 7.85718 4.92852 7.85718H9.21423C9.60852 7.85718 9.92852 8.17718 9.92852 8.57146C9.92852 8.96575 9.60852 9.28575 9.21423 9.28575Z" fill="#8697CB"/>
<path d="M11.3571 12.857H4.92852C4.53423 12.857 4.21423 12.537 4.21423 12.1428C4.21423 11.7485 4.53423 11.4285 4.92852 11.4285H11.3571C11.7514 11.4285 12.0714 11.7485 12.0714 12.1428C12.0714 12.537 11.7514 12.857 11.3571 12.857Z" fill="#8697CB"/>
<path d="M14.2143 12.8571C14.0286 12.8571 13.8429 12.7786 13.7071 12.65C13.5786 12.5143 13.5 12.3286 13.5 12.1429C13.5 11.9571 13.5786 11.7714 13.7071 11.6357C13.9714 11.3714 14.4571 11.3714 14.7214 11.6357C14.85 11.7714 14.9286 11.9571 14.9286 12.1429C14.9286 12.3286 14.85 12.5143 14.7214 12.65C14.5857 12.7786 14.4 12.8571 14.2143 12.8571Z" fill="#8697CB"/>
<path d="M22.7856 12.857H17.0713C16.6771 12.857 16.3571 12.537 16.3571 12.1428C16.3571 11.7485 16.6771 11.4285 17.0713 11.4285H22.7856C23.1799 11.4285 23.4999 11.7485 23.4999 12.1428C23.4999 12.537 23.1799 12.857 22.7856 12.857Z" fill="#8697CB"/>
<path d="M4.92852 23.5715C4.7428 23.5715 4.55709 23.4929 4.42138 23.3644C4.2928 23.2286 4.21423 23.0429 4.21423 22.8572C4.21423 22.6715 4.2928 22.4858 4.42138 22.3501C4.68566 22.0858 5.17138 22.0858 5.43566 22.3501C5.56423 22.4858 5.64281 22.6644 5.64281 22.8572C5.64281 23.0429 5.56423 23.2286 5.43566 23.3644C5.29995 23.4929 5.11423 23.5715 4.92852 23.5715Z" fill="#8697CB"/>
<path d="M13.5 23.5714H7.7857C7.39141 23.5714 7.07141 23.2514 7.07141 22.8571C7.07141 22.4628 7.39141 22.1428 7.7857 22.1428H13.5C13.8943 22.1428 14.2143 22.4628 14.2143 22.8571C14.2143 23.2514 13.8943 23.5714 13.5 23.5714Z" fill="#8697CB"/>
<path d="M27.0714 12.857H25.6429C25.2486 12.857 24.9286 12.537 24.9286 12.1428C24.9286 11.7485 25.2486 11.4285 25.6429 11.4285H27.0714C27.4657 11.4285 27.7857 11.7485 27.7857 12.1428C27.7857 12.537 27.4657 12.857 27.0714 12.857Z" fill="#8697CB"/>
<path d="M20.6428 16.4286H4.92852C4.53423 16.4286 4.21423 16.1086 4.21423 15.7143C4.21423 15.32 4.53423 15 4.92852 15H20.6428C21.0371 15 21.3571 15.32 21.3571 15.7143C21.3571 16.1086 21.0371 16.4286 20.6428 16.4286Z" fill="#8697CB"/>
<path d="M27.0714 16.4286H22.7857C22.3914 16.4286 22.0714 16.1086 22.0714 15.7143C22.0714 15.32 22.3914 15 22.7857 15H27.0714C27.4657 15 27.7857 15.32 27.7857 15.7143C27.7857 16.1086 27.4657 16.4286 27.0714 16.4286Z" fill="#8697CB"/>
<path d="M7.78566 20.0001H4.92852C4.53423 20.0001 4.21423 19.6801 4.21423 19.2858C4.21423 18.8915 4.53423 18.5715 4.92852 18.5715H7.78566C8.17995 18.5715 8.49995 18.8915 8.49995 19.2858C8.49995 19.6801 8.17995 20.0001 7.78566 20.0001Z" fill="#8697CB"/>
<path d="M17.7857 20.0001H10.6429C10.2486 20.0001 9.92859 19.6801 9.92859 19.2858C9.92859 18.8915 10.2486 18.5715 10.6429 18.5715H17.7857C18.18 18.5715 18.5 18.8915 18.5 19.2858C18.5 19.6801 18.18 20.0001 17.7857 20.0001Z" fill="#8697CB"/>
<path d="M27.0714 20.0001H20.6429C20.2486 20.0001 19.9286 19.6801 19.9286 19.2858C19.9286 18.8915 20.2486 18.5715 20.6429 18.5715H27.0714C27.4657 18.5715 27.7857 18.8915 27.7857 19.2858C27.7857 19.6801 27.4657 20.0001 27.0714 20.0001Z" fill="#8697CB"/>
<path d="M30.3121 40H1.68782C1.11068 40 0.642822 39.5322 0.642822 38.955V27.8572H31.3571V38.955C31.3571 39.5322 30.8892 40 30.3121 40Z" fill="#0096E6"/>
<path d="M12.7857 34.0587C12.7857 34.6509 12.7221 35.1573 12.595 35.5773C12.4679 35.9973 12.3071 36.3487 12.1114 36.6323C11.9157 36.9159 11.6964 37.1387 11.4521 37.3016C11.2078 37.4644 10.9721 37.5859 10.7443 37.668C10.5164 37.7494 10.3079 37.8016 10.1193 37.8244C9.93071 37.8459 9.79071 37.8573 9.69999 37.8573H6.97571V30.6602H9.14285C9.74856 30.6602 10.2807 30.7566 10.7393 30.948C11.1979 31.1394 11.5793 31.3959 11.8821 31.7144C12.185 32.033 12.4107 32.3966 12.5607 32.803C12.7107 33.2102 12.7857 33.6287 12.7857 34.0587ZM9.30928 36.998C10.1036 36.998 10.6764 36.7444 11.0279 36.2366C11.3793 35.7287 11.555 34.993 11.555 34.0294C11.555 33.7302 11.5193 33.4337 11.4479 33.1409C11.3757 32.848 11.2379 32.583 11.0329 32.3452C10.8279 32.1073 10.5493 31.9152 10.1979 31.7687C9.84642 31.6223 9.39071 31.5487 8.83071 31.5487H8.14714V36.998H9.30928Z" fill="white"/>
<path d="M19.9108 34.2244C19.9108 34.8301 19.8343 35.3637 19.6815 35.8258C19.5286 36.288 19.3165 36.6723 19.0465 36.978C18.7765 37.2844 18.4608 37.5151 18.0993 37.6715C17.7379 37.828 17.3422 37.9058 16.9129 37.9058C16.4836 37.9058 16.0879 37.828 15.7265 37.6715C15.365 37.5151 15.0493 37.2844 14.7793 36.978C14.5093 36.6715 14.2972 36.288 14.1443 35.8258C13.9915 35.3637 13.915 34.8294 13.915 34.2244C13.915 33.6194 13.9915 33.0865 14.1443 32.628C14.2972 32.1687 14.5086 31.7865 14.7793 31.4808C15.0493 31.1744 15.365 30.9423 15.7265 30.7823C16.0879 30.6223 16.4836 30.543 16.9129 30.543C17.3422 30.543 17.7379 30.6223 18.0993 30.7823C18.4608 30.9423 18.7765 31.1744 19.0465 31.4808C19.3165 31.7873 19.5279 32.1694 19.6815 32.628C19.8336 33.0865 19.9108 33.6187 19.9108 34.2244ZM16.8829 36.9494C17.1236 36.9494 17.3529 36.9023 17.5715 36.808C17.7893 36.7137 17.985 36.5587 18.1572 36.3444C18.3293 36.1294 18.465 35.848 18.5622 35.4994C18.6593 35.1508 18.7115 34.7265 18.7186 34.2251C18.7122 33.7365 18.6615 33.3215 18.5672 32.9801C18.4729 32.638 18.3429 32.3565 18.1765 32.1351C18.01 31.9137 17.8215 31.7544 17.61 31.6565C17.3986 31.5587 17.1758 31.5101 16.9408 31.5101C16.7 31.5101 16.47 31.5551 16.2522 31.6465C16.0336 31.738 15.8386 31.8923 15.6665 32.1101C15.4936 32.3287 15.3586 32.6094 15.2615 32.9551C15.1643 33.3008 15.1115 33.723 15.105 34.2244C15.1115 34.713 15.1622 35.1294 15.2565 35.4744C15.3508 35.8194 15.4808 36.1008 15.6472 36.3194C15.8136 36.538 16.0022 36.6965 16.2136 36.798C16.4258 36.8987 16.6486 36.9494 16.8829 36.9494Z" fill="white"/>
<path d="M26.4336 37.1251C26.1665 37.3851 25.8636 37.5808 25.5257 37.7108C25.1872 37.8415 24.8229 37.9058 24.4322 37.9058C24.0022 37.9058 23.6072 37.828 23.2458 37.6715C22.8843 37.5151 22.5686 37.2844 22.2986 36.978C22.0286 36.6715 21.8165 36.288 21.6636 35.8258C21.5108 35.3637 21.4343 34.8294 21.4343 34.2244C21.4343 33.6194 21.5108 33.0865 21.6636 32.628C21.8165 32.1687 22.0279 31.7865 22.2986 31.4808C22.5686 31.1744 22.8858 30.9423 23.2508 30.7823C23.615 30.6223 24.0093 30.543 24.4322 30.543C24.8229 30.543 25.1872 30.608 25.5257 30.738C25.8643 30.8687 26.1665 31.0637 26.4336 31.3237L25.6229 32.0465C25.46 31.8573 25.2793 31.7208 25.0808 31.6365C24.8822 31.5523 24.6758 31.5094 24.4608 31.5094C24.22 31.5094 23.99 31.5544 23.7722 31.6458C23.5536 31.7373 23.3586 31.8915 23.1865 32.1094C23.0136 32.328 22.8786 32.6087 22.7815 32.9544C22.6843 33.3001 22.6315 33.7223 22.625 34.2237C22.6315 34.7123 22.6822 35.1287 22.7765 35.4737C22.8708 35.8187 23.0008 36.1001 23.1672 36.3187C23.3336 36.5373 23.5222 36.6958 23.7336 36.7973C23.945 36.8987 24.1679 36.9487 24.4029 36.9487C24.6379 36.9487 24.8572 36.9058 25.0622 36.8215C25.2672 36.7373 25.4543 36.6001 25.6236 36.4115L26.4336 37.1251Z" fill="white"/>
</g>
<rect x="-5927" y="-2795" width="11831" height="3608" stroke="#5C5B5B" stroke-width="12" stroke-dasharray="100 100"/>
<defs>
<clipPath id="clip0_177_469">
<rect width="375" height="812" fill="white" transform="translate(-28 -438)"/>
</clipPath>
</defs>
</svg>
