<svg width="40" height="40" viewBox="0 0 40 40" fill="none"
  xmlns="http://www.w3.org/2000/svg">
  <path d="M2.05714 10.9714V6.51429C2.05714 3.99664 3.99664 2.05714 6.51429 2.05714H10.9714C11.5395 2.05714 12 1.59664 12 1.02857C12 0.460507 11.5395 0 10.9714 0H6.51429C2.86051 0 0 2.86051 0 6.51429V10.9714C0 11.5395 0.460507 12 1.02857 12C1.59664 12 2.05714 11.5395 2.05714 10.9714Z" fill="#DE9B39"/>
  <path d="M37.9429 10.9714V6.51429C37.9429 3.99664 36.0034 2.05714 33.4857 2.05714H29.0286C28.4605 2.05714 28 1.59664 28 1.02857C28 0.460507 28.4605 0 29.0286 0H33.4857C37.1395 0 40 2.86051 40 6.51429V10.9714C40 11.5395 39.5395 12 38.9714 12C38.4034 12 37.9429 11.5395 37.9429 10.9714Z" fill="#DE9B39"/>
  <path d="M2.05714 29.0286V33.4857C2.05714 36.0034 3.99664 37.9429 6.51429 37.9429H10.9714C11.5395 37.9429 12 38.4034 12 38.9714C12 39.5395 11.5395 40 10.9714 40H6.51429C2.86051 40 0 37.1395 0 33.4857V29.0286C0 28.4605 0.460507 28 1.02857 28C1.59664 28 2.05714 28.4605 2.05714 29.0286Z" fill="#DE9B39"/>
  <path d="M37.9429 29.0286V33.4857C37.9429 36.0034 36.0034 37.9429 33.4857 37.9429H29.0286C28.4605 37.9429 28 38.4034 28 38.9714C28 39.5395 28.4605 40 29.0286 40H33.4857C37.1395 40 40 37.1395 40 33.4857V29.0286C40 28.4605 39.5395 28 38.9714 28C38.4034 28 37.9429 28.4605 37.9429 29.0286Z" fill="#DE9B39"/>
  <path d="M10.8772 15.1065V17.9653C10.8772 18.557 11.3249 19.0367 11.8772 19.0367C12.4295 19.0367 12.8772 18.557 12.8772 17.9653V15.1065C12.8772 14.5148 12.4295 14.0351 11.8772 14.0351C11.3249 14.0351 10.8772 14.5148 10.8772 15.1065Z" fill="#DE9B39"/>
  <path d="M27.3684 15.1065V17.9653C27.3684 18.557 27.8161 19.0367 28.3684 19.0367C28.9207 19.0367 29.3684 18.557 29.3684 17.9653V15.1065C29.3684 14.5148 28.9207 14.0351 28.3684 14.0351C27.8161 14.0351 27.3684 14.5148 27.3684 15.1065Z" fill="#DE9B39"/>
  <path d="M12.966 29.5415C14.9166 31.362 17.279 32.2807 20 32.2807C22.7211 32.2807 25.0835 31.362 27.034 29.5415C27.459 29.1448 27.482 28.4787 27.0853 28.0537C26.6887 27.6287 26.0226 27.6057 25.5976 28.0024C24.0394 29.4567 22.1912 30.1754 20 30.1754C17.8088 30.1754 15.9607 29.4567 14.4025 28.0024C13.9775 27.6057 13.3114 27.6287 12.9147 28.0537C12.518 28.4787 12.541 29.1448 12.966 29.5415Z" fill="#DE9B39"/>
  <path d="M20 15.0877V22.4561C20 22.9277 19.7695 23.1579 19.2956 23.1579H18.5965C18.0151 23.1579 17.5438 23.6292 17.5438 24.2105C17.5438 24.7919 18.0151 25.2632 18.5965 25.2632H19.2956C20.9316 25.2632 22.1052 24.0909 22.1052 22.4561V15.0877C22.1052 14.5064 21.6339 14.0351 21.0526 14.0351C20.4712 14.0351 20 14.5064 20 15.0877Z" fill="#DE9B39"/>
</svg>
