<svg width="150" height="150" viewBox="0 0 150 150" fill="none"
  xmlns="http://www.w3.org/2000/svg">
  <defs>
    <linearGradient id="paint0_linear_1821:11634" x1="26.9641" y1="41.1814" x2="83.9446" y2="41.1814" gradientUnits="userSpaceOnUse">
      <stop stop-color="#2BA8DF"/>
      <stop offset="0.51" stop-color="#0079C1"/>
      <stop offset="1" stop-color="#04679D"/>
    </linearGradient>
    <linearGradient id="paint1_linear_1821:11634" x1="37.4488" y1="50.2547" x2="113.253" y2="50.2547" gradientUnits="userSpaceOnUse">
      <stop stop-color="#2BA8DF"/>
      <stop offset="0.54" stop-color="#0079C1"/>
      <stop offset="1" stop-color="#04679D"/>
    </linearGradient>
    <linearGradient id="paint2_linear_1821:11634" x1="850.995" y1="522.318" x2="2101.01" y2="522.318" gradientUnits="userSpaceOnUse">
      <stop stop-color="#2BA8DF"/>
      <stop offset="0.54" stop-color="#0079C1"/>
      <stop offset="1" stop-color="#04679D"/>
    </linearGradient>
    <linearGradient id="paint3_linear_1821:11634" x1="10656.4" y1="6039.4" x2="21731.9" y2="6039.4" gradientUnits="userSpaceOnUse">
      <stop stop-color="#2BA8DF"/>
      <stop offset="0.54" stop-color="#0079C1"/>
      <stop offset="1" stop-color="#04679D"/>
    </linearGradient>
  </defs>
  <path d="M16.0992 127.664H12.471L8.41113 108.731H11.44L14.3077 123.121L16.8016 108.731H19.7531L16.0992 127.664Z" fill="#0C5CA8"/>
  <path d="M29.516 127.664L24.4443 115.065V127.664H21.6604V108.731H24.6119L29.3549 120.511V108.731H32.1388V127.664H29.516Z" fill="#0C5CA8"/>
  <path d="M45.35 114.472C45.3522 115.259 45.2459 116.042 45.0342 116.799C44.826 117.55 44.4159 118.23 43.8485 118.764C43.3384 119.27 42.6944 119.618 41.9925 119.77C41.2948 119.912 40.5844 119.983 39.8723 119.982H37.939V127.645H35.0198V108.731H39.8723C41.8357 108.731 43.2406 109.205 44.0869 110.155C44.9504 111.102 45.35 112.539 45.35 114.472ZM42.3147 114.253C42.3147 113.119 42.0698 112.365 41.593 111.991C40.8823 111.557 40.0515 111.36 39.2215 111.431H37.9326V117.289H39.2215C40.3943 117.289 41.2063 117.082 41.6445 116.644C42.0827 116.206 42.3147 115.439 42.3147 114.253Z" fill="#0C5CA8"/>
  <path d="M52.6838 111.437V127.664H49.771V111.437H46.1106V108.731H56.3828V111.437H52.6838Z" fill="#0C5CA8"/>
  <path d="M74.3361 123.12C74.3484 123.817 74.2145 124.509 73.943 125.15C73.6903 125.729 73.3142 126.246 72.841 126.665C72.3614 127.088 71.8029 127.412 71.1977 127.619C70.5392 127.838 69.8489 127.947 69.1548 127.941C67.4063 127.941 66.0809 127.466 65.1787 126.517C64.2049 125.424 63.5907 124.058 63.4194 122.605L66.2291 121.786C66.2853 122.207 66.3802 122.621 66.5127 123.024C66.6406 123.413 66.8228 123.781 67.054 124.119C67.2765 124.436 67.5644 124.702 67.8982 124.899C68.2925 125.114 68.7384 125.217 69.1871 125.195C69.4755 125.217 69.7651 125.176 70.036 125.074C70.3069 124.973 70.5528 124.815 70.7567 124.61C70.9605 124.405 71.1176 124.158 71.2171 123.886C71.3166 123.615 71.3561 123.325 71.333 123.037C71.3358 122.461 71.1503 121.899 70.8046 121.438C70.4076 120.922 69.9488 120.457 69.4384 120.053C68.8906 119.602 68.2978 119.151 67.6791 118.713C67.0538 118.267 66.4654 117.771 65.9198 117.23C65.3762 116.703 64.9156 116.097 64.5536 115.432C64.2272 114.782 64.0439 114.07 64.0161 113.343C63.9883 112.616 64.1167 111.891 64.3925 111.218C64.6333 110.657 64.9915 110.153 65.4429 109.742C65.8988 109.331 66.4308 109.014 67.0089 108.808C67.6289 108.585 68.2834 108.474 68.9422 108.479C69.6268 108.467 70.3073 108.587 70.9464 108.833C71.5125 109.063 72.0289 109.4 72.4672 109.826C72.9096 110.265 73.2793 110.772 73.5627 111.327C73.8653 111.93 74.0967 112.566 74.2523 113.222L71.4555 114.04C71.3717 113.731 71.2621 113.396 71.1333 113.067C71.0145 112.742 70.8495 112.436 70.6435 112.159C70.444 111.904 70.202 111.686 69.9282 111.514C69.6334 111.329 69.2903 111.235 68.9422 111.244C68.6906 111.238 68.4405 111.284 68.2076 111.379C67.9747 111.474 67.764 111.617 67.5889 111.798C67.4111 111.979 67.2716 112.193 67.1786 112.429C67.0856 112.665 67.041 112.917 67.0476 113.17C67.0458 113.739 67.2366 114.291 67.5889 114.736C67.9862 115.244 68.4452 115.701 68.9551 116.096C69.5028 116.528 70.0893 116.973 70.7144 117.437C71.3403 117.891 71.9287 118.395 72.4737 118.945C73.0189 119.49 73.4774 120.116 73.8334 120.8C74.1814 121.523 74.3537 122.318 74.3361 123.12V123.12Z" fill="#0C5CA8"/>
  <path d="M87.8108 127.664V117.353C87.8108 117.16 87.8108 116.967 87.8108 116.78C87.8004 116.599 87.7612 116.42 87.6948 116.251C87.6291 116.093 87.5195 115.957 87.3791 115.858C87.2078 115.745 87.0041 115.69 86.7991 115.704C86.3369 115.705 85.8915 115.877 85.5489 116.187C85.1986 116.466 84.8808 116.784 84.6016 117.134V127.696H81.9723V117.385C81.9723 117.192 81.9723 116.999 81.9723 116.812C81.9629 116.63 81.9215 116.451 81.8499 116.284C81.7865 116.126 81.6791 115.989 81.5405 115.89C81.3685 115.779 81.1654 115.724 80.9606 115.736C80.5157 115.736 80.0858 115.896 79.749 116.187C79.41 116.468 79.1031 116.786 78.8339 117.134V127.696H76.1595V113.558H78.8339V115.368C79.2866 114.844 79.7992 114.375 80.3612 113.97C80.9293 113.579 81.6053 113.377 82.2945 113.39C82.5726 113.371 82.8516 113.409 83.1143 113.502C83.377 113.595 83.6178 113.741 83.8218 113.931C84.1904 114.331 84.4306 114.831 84.5114 115.368C84.9936 114.854 85.5269 114.39 86.1031 113.983C86.687 113.584 87.3808 113.377 88.0879 113.39C88.5039 113.372 88.9166 113.471 89.2801 113.674C89.5804 113.85 89.8275 114.103 89.9955 114.408C90.1731 114.727 90.289 115.077 90.337 115.439C90.3914 115.839 90.4194 116.241 90.4208 116.644V127.664H87.8108Z" fill="#0C5CA8"/>
  <path d="M98.9857 127.664C98.8844 127.403 98.8173 127.13 98.7859 126.852C98.7859 126.581 98.7472 126.304 98.7472 126.014C98.3184 126.482 97.8506 126.913 97.3488 127.303C96.8276 127.687 96.1913 127.882 95.5444 127.857C95.0788 127.872 94.6178 127.761 94.2104 127.535C93.8529 127.317 93.5508 127.019 93.3276 126.665C93.0913 126.297 92.9273 125.888 92.8442 125.46C92.749 125.019 92.7015 124.57 92.7025 124.119C92.6938 123.543 92.7854 122.969 92.9731 122.424C93.1785 121.891 93.505 121.412 93.9269 121.026C94.5986 120.398 95.375 119.892 96.221 119.531C97.1104 119.138 97.9546 118.777 98.7472 118.435V117.701C98.7468 117.455 98.7339 117.21 98.7085 116.966C98.6827 116.743 98.6218 116.526 98.5281 116.322C98.4343 116.132 98.2862 115.975 98.1028 115.871C97.8747 115.751 97.6191 115.693 97.3617 115.703C97.1165 115.675 96.8687 115.722 96.6504 115.837C96.432 115.952 96.2533 116.13 96.1373 116.347C95.9194 116.782 95.8027 117.26 95.7957 117.746H92.9796C93.0082 116.531 93.5099 115.375 94.378 114.524C95.3158 113.752 96.5097 113.361 97.7226 113.428C98.2562 113.425 98.7876 113.497 99.3014 113.641C99.8066 113.799 100.254 114.102 100.59 114.511C100.971 114.912 101.213 115.425 101.28 115.974C101.339 116.513 101.369 117.055 101.37 117.598V123.881C101.37 124.525 101.37 125.17 101.37 125.814C101.389 126.456 101.482 127.094 101.647 127.715L98.9857 127.664ZM98.7472 120.401C98.4057 120.568 98.0448 120.762 97.6646 120.994C97.2891 121.215 96.939 121.476 96.6206 121.774C96.3068 122.062 96.0356 122.394 95.8151 122.76C95.5979 123.119 95.4862 123.532 95.4928 123.952C95.4889 124.341 95.606 124.721 95.8279 125.041C95.9373 125.201 96.0861 125.33 96.2599 125.416C96.4338 125.502 96.6268 125.541 96.8204 125.531C97.2307 125.537 97.631 125.403 97.9546 125.15C98.2716 124.903 98.5404 124.599 98.7472 124.255V120.401Z" fill="#0C5CA8"/>
  <path d="M109.535 116.231C109.323 116.191 109.107 116.172 108.891 116.173C108.493 116.152 108.096 116.239 107.744 116.425C107.47 116.571 107.246 116.795 107.099 117.069C106.955 117.375 106.865 117.705 106.835 118.042C106.796 118.41 106.776 118.78 106.777 119.15V127.631H104.103V113.557H106.816V115.993C107.072 115.269 107.484 114.609 108.021 114.059C108.624 113.577 109.391 113.346 110.16 113.415V116.45C109.961 116.353 109.751 116.28 109.535 116.231Z" fill="#0C5CA8"/>
  <path d="M117.281 127.787C116.986 127.824 116.689 127.841 116.392 127.839C115.862 127.841 115.333 127.776 114.819 127.645C114.312 127.505 113.862 127.21 113.531 126.801C113.17 126.39 112.957 125.871 112.925 125.325C112.886 124.758 112.86 124.217 112.86 123.695V115.942H110.856V113.558H112.86V109.691H115.535V113.558H117.951V115.942H115.515V123.437C115.493 123.943 115.606 124.446 115.844 124.894C115.995 125.095 116.197 125.253 116.429 125.351C116.661 125.448 116.916 125.482 117.165 125.448C117.336 125.451 117.506 125.438 117.674 125.409C117.81 125.377 117.964 125.338 118.151 125.28V127.665C117.855 127.723 117.565 127.787 117.281 127.787Z" fill="#0C5CA8"/>
  <path d="M129.603 124.133C129.455 124.851 129.161 125.531 128.739 126.13C128.329 126.707 127.776 127.167 127.134 127.464C126.357 127.804 125.514 127.967 124.666 127.941C123.836 127.953 123.013 127.791 122.25 127.464C121.498 127.119 120.867 126.555 120.439 125.847C120.189 125.494 120 125.102 119.878 124.687C119.748 124.267 119.658 123.835 119.607 123.398C119.551 122.958 119.523 122.514 119.524 122.071V115.452C119.524 114.982 119.524 114.524 119.524 114.067C119.534 113.618 119.571 113.171 119.633 112.726C119.697 112.286 119.808 111.854 119.962 111.437C120.12 111 120.337 110.586 120.606 110.207C121.063 109.599 121.685 109.136 122.398 108.873C123.105 108.598 123.856 108.458 124.615 108.46C125.407 108.444 126.194 108.597 126.922 108.911C127.545 109.192 128.092 109.616 128.52 110.149C128.949 110.699 129.263 111.33 129.441 112.005C129.645 112.761 129.745 113.541 129.738 114.324V114.898H126.819C126.819 114.505 126.819 114.093 126.761 113.667C126.728 113.258 126.632 112.855 126.477 112.475C126.339 112.124 126.118 111.812 125.833 111.566C125.486 111.313 125.062 111.188 124.634 111.212C124.191 111.184 123.752 111.309 123.39 111.566C123.102 111.804 122.88 112.113 122.746 112.462C122.601 112.84 122.514 113.238 122.488 113.641C122.488 114.06 122.449 114.473 122.449 114.872V121.181C122.449 121.574 122.449 122.013 122.449 122.47C122.463 122.91 122.546 123.345 122.694 123.759C122.822 124.144 123.043 124.492 123.339 124.771C123.699 125.068 124.161 125.216 124.627 125.183C125.095 125.21 125.556 125.058 125.916 124.758C126.231 124.471 126.465 124.107 126.593 123.701C126.739 123.261 126.826 122.804 126.851 122.341C126.851 121.851 126.902 121.413 126.902 121.014H129.809V121.658C129.825 122.488 129.756 123.317 129.603 124.133V124.133Z" fill="#0C5CA8"/>
  <path d="M139.72 127.644L138.934 123.526H134.874L134.139 127.644H131.304L134.932 108.704H138.94L142.762 127.644H139.72ZM136.852 112.319L135.357 120.8H138.392L136.852 112.319Z" fill="#0C5CA8"/>
  <path d="M60.4164 59.9794C70.9351 49.1299 84.0081 41.0934 98.4378 36.6059C98.1929 36.6833 97.948 36.7541 97.7096 36.8379C94.5541 31.5477 89.8239 27.3762 84.1806 24.907C78.5373 22.4379 72.2633 21.7946 66.2364 23.0671C60.2094 24.3397 54.7311 27.4645 50.5677 32.0043C46.4043 36.5441 43.7643 42.2718 43.0168 48.3861C46.5689 48.9874 49.9543 50.3307 52.9523 52.3283C55.9503 54.3258 58.4936 56.9329 60.4164 59.9794V59.9794Z" fill="url(#paint0_linear_1821:11634)"/>
  <path d="M60.4163 59.9791L60.5516 60.1789H65.0626C65.9488 60.1778 66.8135 60.4518 67.5373 60.9632C68.2611 61.4746 68.8082 62.1981 69.1032 63.0337H75.3219C75.8914 63.0331 76.4552 63.1469 76.98 63.3683C77.5047 63.5897 77.9796 63.9142 78.3765 64.3226L78.5634 64.5095C92.9277 54.321 108.194 49.1656 116.791 51.6402H116.727C116.772 51.1698 116.797 50.6929 116.797 50.216C116.807 47.9909 116.294 45.7947 115.297 43.805C114.301 41.8153 112.851 40.088 111.063 38.7629C109.276 37.4377 107.201 36.552 105.008 36.1772C102.814 35.8025 100.564 35.9492 98.4376 36.6057C84.0079 41.0931 70.9349 49.1297 60.4163 59.9791Z" fill="url(#paint1_linear_1821:11634)"/>
  <path d="M39.5435 99.2124H48.8812C49.2872 98.3167 49.7061 97.4274 50.1701 96.5445C46.8635 98.1946 43.2373 99.105 39.5435 99.2124V99.2124Z" fill="url(#paint2_linear_1821:11634)"/>
  <path d="M116.792 51.6407C108.195 49.1855 92.9476 54.3473 78.5833 64.5293L79.2277 65.1738H81.5219C82.3274 64.3102 83.4552 63.0085 84.6345 63.0085H89.8672C91.0981 63.0085 92.1485 64.4713 92.8961 65.1738H94.1076C94.5651 64.5293 95.2482 63.0858 96.84 63.0085H102.64C103.242 63.0089 103.838 63.1366 104.388 63.3832C104.937 63.6297 105.429 63.9895 105.83 64.4391L111.823 71.1412C112.525 71.924 112.912 72.9383 112.912 73.9896C112.912 74.3827 112.912 75.5491 112.912 75.7295C112.868 76.7036 112.493 77.6335 111.849 78.3652L108.105 83.0696C107.704 83.5697 107.196 83.9734 106.618 84.2511C106.04 84.5289 105.407 84.6734 104.766 84.6742H68.9362C68.5829 85.3984 68.0329 86.0085 67.3491 86.4347C66.6653 86.861 65.8753 87.0861 65.0696 87.0844H60.5586C58.0332 91.1438 54.4271 94.4196 50.1446 96.5446C49.6999 97.4275 49.281 98.3168 48.8557 99.2125H107.885C108.214 99.2125 108.53 99.2125 108.878 99.2125C114.672 99.2164 120.28 97.1623 124.7 93.4165C129.121 89.6706 132.068 84.4765 133.015 78.7601C133.962 73.0438 132.849 67.1768 129.873 62.2052C126.897 57.2335 122.252 53.4804 116.766 51.615L116.792 51.6407Z" fill="url(#paint3_linear_1821:11634)"/>
  <path d="M108.659 74.0217L102.698 67.3196H96.8977L95.6089 69.7427H92.0259L89.9701 67.3196H84.7696L82.5205 69.7234H77.8162L75.5027 67.3325H65.3078V64.497H58.29C56.2092 60.1287 52.7046 56.5979 48.3519 54.4845C43.9992 52.3712 39.0571 51.801 34.3375 52.8677C29.6179 53.9343 25.4014 56.5743 22.3806 60.3541C19.3597 64.1339 17.7141 68.8286 17.7141 73.6673C17.7141 78.5059 19.3597 83.2007 22.3806 86.9804C25.4014 90.7602 29.6179 93.4002 34.3375 94.4669C39.0571 95.5335 43.9992 94.9633 48.3519 92.85C52.7046 90.7367 56.2092 87.2059 58.29 82.8375H65.3078V80.4273H104.805L108.53 75.7552H65.3078V74.0539L108.659 74.0217ZM31.1917 81.6195C29.6106 81.6246 28.0636 81.1602 26.7468 80.2851C25.4299 79.41 24.4025 78.1637 23.7948 76.704C23.1871 75.2444 23.0264 73.6371 23.3332 72.0861C23.6399 70.535 24.4002 69.1099 25.5178 67.9915C26.6353 66.873 28.0598 66.1115 29.6106 65.8036C31.1614 65.4956 32.7688 65.6549 34.2289 66.2615C35.689 66.868 36.9362 67.8944 37.8124 69.2105C38.6885 70.5267 39.1542 72.0733 39.1504 73.6544C39.1504 75.7658 38.3121 77.7908 36.8198 79.2843C35.3274 80.7779 33.3031 81.6178 31.1917 81.6195V81.6195Z" fill="#DE9B39"/>
</svg>
