<svg width="20" height="21" viewBox="0 0 20 21" fill="none"
  xmlns="http://www.w3.org/2000/svg">
  <path d="M9.38602 2.19924L2.54435 9.4409C2.28602 9.7159 2.03602 10.2576 1.98602 10.6326L1.67768 13.3326C1.56935 14.3076 2.26935 14.9742 3.23602 14.8076L5.91935 14.3492C6.29435 14.2826 6.81935 14.0076 7.07768 13.7242L13.9193 6.48257C15.1027 5.23257 15.636 3.80757 13.7943 2.0659C11.961 0.340903 10.5693 0.949237 9.38602 2.19924Z" stroke="#121D3F" stroke-width="1.5" stroke-miterlimit="10" stroke-linecap="round" stroke-linejoin="round"/>
  <path d="M19.4385 12.6666L13.424 12.6667C12.1194 12.6667 11.0581 13.7271 11.0581 15.0305C11.0581 16.3339 12.1195 17.3944 13.424 17.3944C14.1093 17.3944 14.6668 17.9514 14.6668 18.6361C14.6668 19.3208 14.1092 19.8779 13.424 19.8779H1.3949C1.08479 19.8779 0.833374 20.1291 0.833374 20.4389C0.833374 20.7488 1.08479 21 1.3949 21H13.424C14.7286 21 15.7899 19.9395 15.7899 18.6361C15.7899 17.3327 14.7285 16.2723 13.424 16.2723C12.7387 16.2723 12.1812 15.7152 12.1811 15.0305C12.1811 14.3458 12.7387 13.7887 13.424 13.7887L19.4385 13.7887C19.7486 13.7887 20 13.5375 20 13.2277C20 12.9178 19.7486 12.6666 19.4385 12.6666Z" fill="#121D3F"/>
  <path d="M8.24438 3.40759C8.60272 5.70759 10.4694 7.46593 12.7861 7.69926" stroke="#121D3F" stroke-width="1.5" stroke-miterlimit="10" stroke-linecap="round" stroke-linejoin="round"/>
</svg>
