<svg width="24" height="25" viewBox="0 0 24 25" fill="none" xmlns="http://www.w3.org/2000/svg">
<path d="M10.626 1.01469C11.397 0.328436 12.603 0.328436 13.374 1.01469L23.061 9.63709C23.6604 10.1706 24 10.9129 24 11.6894V22.1757C24 23.7355 22.6568 25 21 25H17C15.3431 25 14 23.7355 14 22.1757V17.4684C14 16.9485 13.5523 16.527 13 16.527H11C10.4477 16.527 10 16.9485 10 17.4684V22.1757C10 23.7355 8.65686 25 7 25H3C1.34314 25 0 23.7355 0 22.1757V11.6894C0 10.9129 0.3396 10.1706 0.93896 9.63709L10.626 1.01469ZM12 2.3829L2.31298 11.0053C2.1132 11.1831 2 11.4305 2 11.6894V22.1757C2 22.6955 2.44772 23.1171 3 23.1171H7C7.55228 23.1171 8 22.6955 8 22.1757V17.4684C8 15.9087 9.34314 14.6442 11 14.6442H13C14.6569 14.6442 16 15.9087 16 17.4684V22.1757C16 22.6955 16.4478 23.1171 17 23.1171H21C21.5522 23.1171 22 22.6955 22 22.1757V11.6894C22 11.4305 21.8868 11.1831 21.687 11.0053L12 2.3829Z" fill="#212121"/>
</svg>
