<svg width="20" height="20" viewBox="0 0 20 20" fill="none"
  xmlns="http://www.w3.org/2000/svg">
  <path d="M6.66663 18.3333H13.3333C16.6833 18.3333 17.2833 16.9917 17.4583 15.3583L18.0833 8.69167C18.3083 6.65833 17.725 5 14.1666 5H5.8333C2.27497 5 1.69163 6.65833 1.91663 8.69167L2.54163 15.3583C2.71663 16.9917 3.31663 18.3333 6.66663 18.3333Z" stroke="#121D3F" stroke-width="1.5" stroke-miterlimit="10" stroke-linecap="round" stroke-linejoin="round"/>
  <path d="M6.66663 4.99996V4.33329C6.66663 2.85829 6.66663 1.66663 9.33329 1.66663H10.6666C13.3333 1.66663 13.3333 2.85829 13.3333 4.33329V4.99996" stroke="#121D3F" stroke-width="1.5" stroke-miterlimit="10" stroke-linecap="round" stroke-linejoin="round"/>
  <path d="M11.6666 10.8333V11.6667C11.6666 11.675 11.6666 11.675 11.6666 11.6833C11.6666 12.5917 11.6583 13.3333 9.99998 13.3333C8.34998 13.3333 8.33331 12.6 8.33331 11.6917V10.8333C8.33331 10 8.33331 10 9.16665 10H10.8333C11.6666 10 11.6666 10 11.6666 10.8333Z" stroke="#121D3F" stroke-width="1.5" stroke-miterlimit="10" stroke-linecap="round" stroke-linejoin="round"/>
  <path d="M18.0416 9.16663C16.1166 10.5666 13.9166 11.4 11.6666 11.6833" stroke="#121D3F" stroke-width="1.5" stroke-miterlimit="10" stroke-linecap="round" stroke-linejoin="round"/>
  <path d="M2.18329 9.39172C4.05829 10.6751 6.17496 11.4501 8.33329 11.6917" stroke="#121D3F" stroke-width="1.5" stroke-miterlimit="10" stroke-linecap="round" stroke-linejoin="round"/>
</svg>
