<svg width="40" height="40" viewBox="0 0 40 40" fill="none"
  xmlns="http://www.w3.org/2000/svg">
  <defs>
    <clipPath id="clip0">
      <rect width="40" height="40" fill="white"/>
    </clipPath>
  </defs>
  <g clip-path="url(#clip0)">
    <path d="M4.00044 9.01801C4.06033 9.06386 4.12896 9.09697 4.20211 9.1153C4.27525 9.13363 4.35138 9.1368 4.4258 9.12461C4.50022 9.11242 4.57135 9.08512 4.63484 9.04441C4.69833 9.00369 4.75282 8.95042 4.79496 8.88786C4.87859 8.79024 4.95293 8.67867 5.03192 8.57641C7.29465 5.61253 10.3852 3.38662 13.9125 2.18022C17.4399 0.973822 21.2456 0.841139 24.8484 1.79895C25.9908 2.11938 27.1049 2.53293 28.1798 3.03544C28.6444 3.25857 29.0672 3.06333 29.1091 2.62173C29.1509 2.18013 28.8674 2.07786 28.5701 1.93841C25.852 0.650784 22.9992 0 19.2682 0C14.1573 0.116211 9.2043 2.24985 5.21777 6.54503C4.74538 7.07032 4.3003 7.61957 3.88428 8.19059C3.82916 8.2489 3.78786 8.31888 3.76347 8.39534C3.73907 8.4718 3.73219 8.55278 3.74335 8.63226C3.75451 8.71174 3.78342 8.78769 3.82792 8.85447C3.87243 8.92125 3.93139 8.97715 4.00044 9.01801Z" fill="#DE9B39"/>
    <path d="M14.7566 18.5381C14.6972 18.7131 14.6689 18.8971 14.673 19.0819C14.6766 19.2151 14.7321 19.3416 14.8275 19.4345C14.923 19.5274 15.0509 19.5794 15.1841 19.5793C15.6023 19.6026 15.737 19.3283 15.8392 18.9657C16.3503 17.1993 17.5072 16.0744 19.3286 15.7955C20.168 15.6373 21.0358 15.7443 21.8116 16.1017C22.5875 16.459 23.2331 17.0489 23.6589 17.7897C24.1933 18.6124 24.2676 19.57 24.4163 20.5044C24.5972 21.697 24.695 22.9007 24.709 24.1069C24.709 24.502 24.8205 24.8367 25.2805 24.8367C25.7405 24.8367 25.8799 24.4834 25.8613 24.0651C25.8613 23.8977 25.8613 23.7304 25.8613 23.563C25.8106 21.9665 25.624 20.3772 25.3037 18.8123C25.0415 17.6271 24.3904 16.5637 23.4541 15.7915C22.5179 15.0192 21.3503 14.5826 20.1373 14.5511C18.9243 14.5195 17.7357 14.8949 16.7606 15.6174C15.7855 16.3399 15.0801 17.368 14.7566 18.5381Z" fill="#DE9B39"/>
    <path d="M13.5672 26.5195C13.8657 24.7967 13.8072 23.031 13.3953 21.3318C13.1874 20.4288 13.2049 19.4884 13.4464 18.5938C14.1573 15.3399 16.866 13.2667 20.2671 13.3085C20.69 13.3085 21.0756 13.2806 21.136 12.76C21.1871 12.3603 20.8712 12.1371 20.2811 12.1278C18.659 12.0729 17.0594 12.5193 15.6998 13.4062C13.0654 15.1261 11.5786 18.5659 12.2755 21.3829C12.2709 21.4557 12.2709 21.5286 12.2755 21.6014C13.1722 26.3568 11.9131 30.4846 8.68391 34.0453C8.39584 34.3568 8.06131 34.631 7.75465 34.9332C7.69154 34.9816 7.63932 35.0428 7.6014 35.1128C7.56349 35.1828 7.54072 35.26 7.53459 35.3393C7.52845 35.4187 7.53908 35.4985 7.56579 35.5735C7.5925 35.6484 7.63469 35.7169 7.68961 35.7745C7.73715 35.8331 7.79645 35.8811 7.86368 35.9153C7.93091 35.9495 8.00457 35.9692 8.07989 35.9732C8.15522 35.9771 8.23053 35.9652 8.30096 35.9382C8.3714 35.9112 8.43538 35.8697 8.48877 35.8164L8.73967 35.5979C11.3668 33.2346 13.0763 30.0198 13.5672 26.5195Z" fill="#DE9B39"/>
    <path d="M1.67731 24.33C1.67731 24.2928 1.67731 24.2557 1.67731 24.2185C0.662809 19.9773 1.1847 15.5136 3.15019 11.6211C3.2473 11.4861 3.29637 11.3225 3.28958 11.1563C3.2881 11.0186 3.2362 10.8863 3.14372 10.7843C3.05124 10.6824 2.92459 10.6179 2.78778 10.6031C2.4393 10.5566 2.25345 10.7658 2.10942 11.068C0.719734 13.8359 -0.00269671 16.8909 -4.17462e-06 19.9884C-0.00680839 21.555 0.180471 23.1163 0.557552 24.6368C0.655124 25.0366 0.817745 25.3713 1.29631 25.2597C1.77488 25.1482 1.77488 24.7252 1.67731 24.33Z" fill="#DE9B39"/>
    <path d="M23.2315 7.70714C20.466 6.97056 17.5326 7.19341 14.9099 8.33933C14.6358 8.45554 14.3477 8.57175 14.357 8.92969C14.357 9.48285 14.7659 9.64555 15.4164 9.39453C19.6043 7.73968 23.5071 8.25101 27.1251 10.9285C27.4782 11.1935 27.8127 11.3934 28.124 10.9704C28.4353 10.5474 28.1612 10.2591 27.8267 9.99883C26.468 8.92807 24.9039 8.14804 23.2315 7.70714Z" fill="#DE9B39"/>
    <path d="M25.1643 26.803C24.7369 26.7658 24.5696 27.0401 24.5232 27.412C24.0278 31.5543 22.5529 35.519 20.2207 38.9773C19.9977 39.3074 19.928 39.6514 20.3136 39.907C20.6993 40.1627 20.9409 39.9767 21.1592 39.6514C23.5944 36.0606 25.1408 31.9418 25.6708 27.6351C25.708 27.2214 25.6708 26.8541 25.1643 26.803Z" fill="#DE9B39"/>
    <path d="M20.9641 25.3713C21.0755 23.5586 20.9458 21.7391 20.5784 19.9605C20.5741 19.8755 20.5503 19.7927 20.5087 19.7185C20.4672 19.6442 20.4091 19.5806 20.339 19.5324C20.2689 19.4843 20.1886 19.453 20.1044 19.441C20.0202 19.429 19.9344 19.4365 19.8536 19.4631C19.7752 19.4795 19.7012 19.5127 19.6367 19.5603C19.5723 19.6079 19.5188 19.6688 19.48 19.739C19.4412 19.8091 19.4179 19.8868 19.4119 19.9667C19.4058 20.0467 19.417 20.127 19.4447 20.2022C19.8121 22.1518 19.9416 24.1389 19.8304 26.1197C19.7954 26.2227 19.7689 26.3284 19.7514 26.4358C19.4358 29.7548 18.3319 32.9504 16.5315 35.756C15.9464 36.6591 15.3023 37.5225 14.6033 38.3405C14.3663 38.6241 14.3106 38.9216 14.6033 39.1772C14.6623 39.2383 14.7344 39.2852 14.8142 39.3145C14.8939 39.3437 14.9792 39.3545 15.0638 39.346C15.1483 39.3375 15.2297 39.3099 15.3021 39.2654C15.3744 39.2209 15.4357 39.1605 15.4814 39.0889C15.5558 39.0052 15.6301 38.9262 15.6998 38.8379C16.9941 37.3282 18.0759 35.6485 18.9151 33.8454C20.1877 31.1969 20.8859 28.309 20.9641 25.3713Z" fill="#DE9B39"/>
    <path d="M34.8798 21.4991C34.8046 21.5014 34.7308 21.5189 34.6627 21.5507C34.5946 21.5825 34.5336 21.6278 34.4836 21.6839C34.4336 21.7401 34.3956 21.8058 34.3718 21.8771C34.3481 21.9484 34.3391 22.0239 34.3454 22.0988C34.3454 22.3033 34.3454 22.5078 34.3454 22.7124C34.5165 25.9777 34.2208 29.2506 33.4673 32.4323C33.3836 32.8135 33.2768 33.19 33.2071 33.5712C33.1864 33.6437 33.1815 33.7199 33.1926 33.7945C33.2037 33.8691 33.2307 33.9404 33.2716 34.0038C33.3125 34.0672 33.3664 34.1211 33.4298 34.1619C33.4932 34.2027 33.5646 34.2295 33.6392 34.2406C33.7116 34.2598 33.7871 34.264 33.8612 34.2528C33.9353 34.2417 34.0063 34.2155 34.0699 34.1759C34.1334 34.1363 34.1882 34.084 34.2308 34.0224C34.2734 33.9607 34.3029 33.891 34.3175 33.8175C34.3687 33.6781 34.3965 33.534 34.4337 33.3899C35.1879 30.4008 35.5656 27.3292 35.5581 24.2464C35.5661 23.5032 35.5366 22.76 35.4698 22.0198C35.4676 21.946 35.4503 21.8735 35.419 21.8067C35.3876 21.7399 35.3429 21.6803 35.2876 21.6315C35.2323 21.5827 35.1675 21.5457 35.0974 21.523C35.0272 21.5002 34.9532 21.4921 34.8798 21.4991Z" fill="#DE9B39"/>
    <path d="M22.9852 28.8204C23.6479 25.6112 23.6051 22.2962 22.8598 19.1052C22.6567 18.3794 22.183 17.7593 21.5363 17.3727C20.8897 16.9861 20.1194 16.8625 19.3843 17.0273C18.6196 17.1795 17.9449 17.6252 17.5046 18.2691C17.0643 18.9129 16.8934 19.7036 17.0287 20.4718C17.5388 22.9722 17.5499 25.5488 17.0612 28.0534C16.9822 28.4486 16.9776 28.8344 17.4747 28.9227C17.9719 29.011 18.1066 28.6903 18.1902 28.2719C18.7106 25.6979 18.7106 23.0458 18.1902 20.4718C18.1255 20.2197 18.1137 19.957 18.1556 19.7001C18.1975 19.4433 18.2921 19.1979 18.4336 18.9795C18.5751 18.7611 18.7603 18.5744 18.9775 18.4312C19.1947 18.288 19.4392 18.1914 19.6957 18.1476C19.9456 18.1157 20.1993 18.1335 20.4424 18.1999C20.6854 18.2663 20.913 18.3801 21.112 18.5347C21.311 18.6893 21.4775 18.8817 21.602 19.1009C21.7265 19.32 21.8066 19.5616 21.8376 19.8117C22.1156 21.2729 22.271 22.7547 22.3022 24.2417C22.3022 25.4317 22.1675 26.6124 22.0839 27.7978C22.0475 27.8821 22.018 27.9691 21.9956 28.0581C21.3822 31.9628 19.7972 35.6506 17.3864 38.7821C17.1355 39.1168 17.0054 39.4561 17.3864 39.749C17.7674 40.0418 18.0555 39.7908 18.3157 39.4701C19.4536 38.0024 20.4157 36.4064 21.1825 34.7147C22.0652 32.8475 22.6725 30.8621 22.9852 28.8204Z" fill="#DE9B39"/>
    <path d="M39.3402 14.982C38.8379 12.9289 37.9742 10.9818 36.7894 9.23184L35.8973 7.97211C35.7873 7.69203 35.6024 7.44759 35.363 7.26554C34.2669 5.87955 32.9684 4.66664 31.5112 3.66763C31.4527 3.60958 31.3817 3.5657 31.3037 3.53936C31.2257 3.51303 31.1426 3.50493 31.061 3.51571C30.9793 3.52648 30.9012 3.55583 30.8327 3.60151C30.7641 3.64718 30.7069 3.70797 30.6655 3.7792C30.6102 3.84627 30.5713 3.92536 30.5519 4.01016C30.5326 4.09495 30.5333 4.1831 30.5541 4.26755C30.5749 4.35201 30.6151 4.43044 30.6715 4.49658C30.728 4.56271 30.7991 4.61473 30.8793 4.64846C32.0986 5.52856 33.2228 6.53341 34.2339 7.64672C34.3335 7.8423 34.4765 8.01245 34.6521 8.1441L35.7486 9.6688C37.7988 12.8302 38.8704 16.5269 38.8291 20.2952C38.8291 20.6856 38.9917 20.9646 39.3959 20.9739C39.8002 20.9831 39.9953 20.681 40 20.2719C40.0171 18.4871 39.7952 16.7079 39.3402 14.982Z" fill="#DE9B39"/>
    <path d="M30.3357 29.3085C30.6946 27.034 30.8037 24.7271 30.6609 22.4288C30.5947 20.943 30.3925 19.4663 30.0569 18.0174C30.0492 17.9317 30.0305 17.8473 30.0011 17.7664C30.0011 17.6363 29.9686 17.5061 29.9407 17.3852C29.2731 14.8201 27.6391 12.6131 25.381 11.2266C23.123 9.84008 20.4161 9.38178 17.8278 9.94771C14.0597 10.8077 11.5274 13.1087 10.259 16.7717C9.74793 18.1031 9.5755 19.5407 9.7572 20.9553C9.94305 22.4614 10.2962 23.9442 10.0917 25.4829C10.0721 25.5611 10.0704 25.6428 10.0868 25.7218C10.1032 25.8008 10.1373 25.875 10.1864 25.939C10.2356 26.003 10.2986 26.0549 10.3707 26.0911C10.4428 26.1272 10.5222 26.1465 10.6028 26.1476C11.021 26.1848 11.2208 25.9245 11.244 25.5479C11.3557 24.6062 11.3369 23.6536 11.1883 22.717C10.6959 20.7071 10.7926 18.5978 11.467 16.6415C11.5321 16.5113 11.6064 16.3812 11.6668 16.2464C12.4525 14.5069 13.7622 13.0569 15.4127 12.0994C17.0632 11.1419 18.9718 10.7249 20.871 10.9068C22.7702 11.0888 24.565 11.8605 26.0039 13.1139C27.4428 14.3673 28.4538 16.0396 28.8953 17.8966C29.6642 21.6098 29.7617 25.4308 29.1834 29.1784C29.1137 29.6107 29.1834 29.9593 29.648 30.0105C30.1126 30.0616 30.2706 29.7223 30.3357 29.3085Z" fill="#DE9B39"/>
    <path d="M8.48878 21.4387C8.48878 21.2713 8.48878 21.1087 8.48878 20.9413C8.33966 19.103 8.63212 17.2558 9.34177 15.5536C10.0514 13.8514 11.1577 12.3437 12.5682 11.1563C13.0329 10.7658 13.0329 10.2963 12.6147 10.0686C12.2894 9.89657 12.0571 10.0686 11.8202 10.2684C9.9304 11.8313 8.54631 13.9197 7.84294 16.2696C7.24148 18.0947 7.11043 20.0422 7.46194 21.9314C7.46878 22.1153 7.4874 22.2985 7.5177 22.4799C7.86956 24.084 7.76984 25.7543 7.22963 27.305C6.69255 28.8932 5.72789 30.3022 4.44185 31.3771C4.01439 31.7397 4.00045 32.1999 4.39538 32.4277C4.71133 32.6136 4.95294 32.4602 5.1899 32.251C8.47484 29.3085 9.5249 25.6967 8.48878 21.4387Z" fill="#DE9B39"/>
    <path d="M6.00764 20.4904C6.00342 20.42 5.98441 20.3512 5.95186 20.2886C5.9193 20.2261 5.87392 20.171 5.81868 20.1272C5.76344 20.0833 5.69958 20.0516 5.63127 20.0341C5.56295 20.0166 5.49172 20.0137 5.4222 20.0256C5.34674 20.0239 5.27178 20.0383 5.20227 20.0677C5.13275 20.0971 5.07026 20.1409 5.0189 20.1963C4.96754 20.2516 4.92848 20.3172 4.90429 20.3887C4.88011 20.4603 4.87135 20.5361 4.87858 20.6113C4.89129 21.3923 4.97684 22.1704 5.13413 22.9355C5.38985 24.0922 5.33217 25.2963 4.96704 26.4232C4.60192 27.5501 3.9426 28.5591 3.05723 29.3457C2.75058 29.6339 2.54149 29.9314 2.88067 30.2754C3.21985 30.6194 3.5451 30.4521 3.84711 30.1732C4.65899 29.4403 5.31082 28.5475 5.76175 27.5509C6.21268 26.5542 6.45299 25.4751 6.46762 24.3812C6.45368 23.0517 6.04016 21.7966 6.00764 20.4904Z" fill="#DE9B39"/>
    <path d="M37.9184 22.6566C37.9017 20.9702 37.7353 19.2886 37.4213 17.6316C37.1437 15.6487 36.5143 13.7313 35.5628 11.9698C34.5358 9.92875 33.1142 8.1119 31.3803 6.62455C29.6464 5.13719 27.6347 4.0089 25.4617 3.30506C25.1132 3.1842 24.7648 3.21209 24.6347 3.6258C24.5046 4.03952 24.7044 4.28124 25.0993 4.41604C27.339 5.14403 29.3959 6.34575 31.1302 7.93957C32.7022 9.41283 33.9891 11.1636 34.9262 13.104C35.3796 14.1982 35.7508 15.3247 36.0367 16.4741C36.3946 18.2732 36.6552 20.0903 36.8173 21.9175C36.918 24.2735 36.8419 26.6338 36.5896 28.9785C36.5385 29.3643 36.6732 29.6665 37.0914 29.7037C37.5096 29.7409 37.6768 29.4898 37.7279 29.0947C37.9485 27.3435 38.0463 25.579 38.0207 23.8141C38.0596 23.4265 38.0329 23.0352 37.9417 22.6566H37.9184Z" fill="#DE9B39"/>
    <path d="M3.97258 23.656C3.70629 22.1209 3.57414 20.5656 3.57765 19.0076C3.60553 18.8449 3.6427 18.6822 3.65663 18.5148C3.82557 16.5784 4.34347 14.6885 5.18527 12.9367C5.97952 11.328 7.00137 9.84227 8.2193 8.52528C9.82239 6.92212 11.7311 5.65751 13.832 4.80651C16.3901 3.76639 19.17 3.39215 21.912 3.71877C22.3208 3.76526 22.7204 3.7792 22.8412 3.25393C22.9295 2.87275 22.6414 2.62174 22.056 2.53807H21.8887C19.5442 2.28462 17.1727 2.51239 14.9193 3.20744C12.2925 3.97296 9.89741 5.38033 7.94982 7.30274C6.55849 8.55863 5.40617 10.0564 4.54872 11.7234C3.43669 13.7268 2.76949 15.9465 2.59263 18.2313C2.4868 18.6058 2.45679 18.9978 2.50435 19.3841V19.9372C2.44791 21.0856 2.54637 22.2364 2.79707 23.3585C2.94007 24.0087 2.92971 24.6833 2.7668 25.3288C2.60388 25.9743 2.29291 26.5729 1.85852 27.0773C1.57974 27.4213 1.39389 27.7606 1.78882 28.086C2.18376 28.4114 2.50435 28.1185 2.76454 27.8024C3.25608 27.2413 3.61893 26.5794 3.82762 25.8631C4.03631 25.1468 4.08579 24.3935 3.97258 23.656Z" fill="#DE9B39"/>
    <path d="M16.9311 30.8751C16.4665 30.6659 16.2203 30.968 16.0576 31.3818C15.1637 33.6079 13.8515 35.6419 12.1919 37.3736C12.0525 37.5224 11.8992 37.6665 11.9178 37.8757C11.9026 37.9909 11.9258 38.108 11.9838 38.2088C12.0417 38.3096 12.1312 38.3886 12.2384 38.4335C12.5683 38.5915 12.8006 38.4335 13.019 38.1871C14.7791 36.3456 16.1758 34.1881 17.1356 31.828C17.2889 31.4561 17.3632 31.0703 16.9311 30.8751Z" fill="#DE9B39"/>
    <path d="M16.0065 26.0686C16.1784 24.7322 16.1784 23.3793 16.0065 22.043C16.0092 21.9593 15.9923 21.8761 15.9573 21.8C15.9222 21.7239 15.8699 21.6571 15.8045 21.6047C15.7391 21.5524 15.6625 21.516 15.5806 21.4985C15.4987 21.481 15.4139 21.4828 15.3328 21.5038C14.9472 21.5875 14.8264 21.885 14.8682 22.2708C14.9796 23.2116 15.0169 24.1597 14.9797 25.1063C14.8844 26.2792 14.7169 27.4451 14.4779 28.5973C13.6419 31.5368 12.0381 34.2003 9.83158 36.3138C9.76471 36.3581 9.70866 36.4169 9.66759 36.4858C9.62652 36.5547 9.60149 36.632 9.59435 36.7119C9.58721 36.7918 9.59814 36.8724 9.62634 36.9475C9.65454 37.0226 9.69928 37.0904 9.75724 37.1459C9.81242 37.2102 9.88132 37.2613 9.95886 37.2955C10.0364 37.3297 10.1206 37.3461 10.2053 37.3434C10.29 37.3407 10.373 37.3191 10.4483 37.28C10.5235 37.241 10.589 37.1857 10.64 37.118C10.942 36.8158 11.2487 36.5183 11.5321 36.1883C13.3315 34.2512 14.6481 31.9162 15.3746 29.3736C15.6116 28.2859 15.8346 27.1842 16.0065 26.0686Z" fill="#DE9B39"/>
    <path d="M32.7936 19.742C32.8819 19.5282 32.6867 19.3701 32.6774 19.1703C32.5334 16.8662 31.7604 14.6458 30.4426 12.7507C30.2056 12.3975 29.9175 12.1139 29.5133 12.4021C29.1091 12.6903 29.2531 13.0529 29.5133 13.4062C30.3526 14.6103 30.9535 15.9642 31.2836 17.3945C31.5716 18.631 31.7017 19.8954 31.8736 21.1505C32.0602 23.2501 32.0727 25.3615 31.9108 27.4631C31.8937 27.4958 31.8797 27.5301 31.869 27.5654C31.5802 30.5007 30.9085 33.3856 29.8711 36.1464C29.7317 36.509 29.7735 36.8344 30.1684 36.9739C30.5634 37.1133 30.8189 36.8855 30.963 36.509C31.3644 35.4724 31.7072 34.4139 31.9898 33.3388C32.5497 31.2832 32.8847 29.1728 32.9887 27.0447C33.1666 25.3457 33.1837 23.6337 33.0399 21.9314C33.036 21.1949 32.9534 20.461 32.7936 19.742Z" fill="#DE9B39"/>
    <path d="M10.4867 28.7879C10.4867 28.4486 10.3427 28.2301 10.05 28.165C9.90394 28.1251 9.74806 28.1448 9.61652 28.2197C9.48499 28.2947 9.38855 28.4188 9.34837 28.5648C8.99694 29.4455 8.54312 30.2818 7.99629 31.0564C7.42043 31.8554 6.74778 32.5798 5.99374 33.2133C5.70566 33.4596 5.52911 33.7385 5.82182 34.0779C6.11454 34.4172 6.42584 34.3568 6.75108 34.0779C6.80684 34.0267 6.87189 33.9849 6.92764 33.9384C8.41437 32.6377 9.58678 31.0166 10.3566 29.197C10.4077 29.0622 10.4495 28.9041 10.4867 28.7879Z" fill="#DE9B39"/>
    <path d="M29.2345 31.9396C28.7327 31.7908 28.5562 32.158 28.4447 32.5671C27.9571 34.3339 27.3149 36.0542 26.5257 37.7083C26.4749 37.8184 26.4314 37.9318 26.3956 38.0477C26.3956 38.4288 26.549 38.6287 26.8277 38.6938C27.1994 38.7775 27.3992 38.5543 27.5526 38.2289C28.3779 36.5097 29.0496 34.7208 29.5598 32.8832C29.6759 32.4834 29.7363 32.0744 29.2345 31.9396Z" fill="#DE9B39"/>
    <path d="M29.7642 9.98954L29.8757 10.0965C32.1851 12.4677 33.6344 15.5443 33.9923 18.8356C34.0481 19.2679 34.1689 19.6397 34.6846 19.5654C35.2004 19.491 35.1771 19.054 35.1214 18.6357C34.9117 16.8502 34.4175 15.1097 33.6578 13.4805C32.9505 11.9117 31.9326 10.5028 30.6656 9.33876C29.9747 8.67483 29.2439 8.05387 28.4772 7.47938C24.0214 4.56479 19.2728 4.05346 14.3106 5.97792C11.7293 6.96382 9.49804 8.69305 7.89869 10.9471C6.47004 12.7826 5.51285 14.9405 5.11091 17.2318C5.02728 17.6549 5.11091 18.0081 5.57554 18.0779C6.04017 18.1476 6.18421 17.8501 6.25855 17.4503C6.50248 16.099 6.95221 14.793 7.59204 13.5782C7.88011 13.0436 8.18212 12.5183 8.47948 11.9884L8.81866 11.5235C8.97663 11.4863 9.03239 11.3608 9.07885 11.226L9.49702 10.7844C12.8764 7.09975 17.0457 5.56266 22.0049 6.17316C24.0477 6.46705 26.0024 7.20139 27.7337 8.3254L28.663 8.98548L29.7642 9.98954Z" fill="#DE9B39"/>
    <path d="M26.8742 33.2969C26.9237 33.2356 26.9604 33.1648 26.982 33.0889C27.0035 33.013 27.0095 32.9336 26.9996 32.8553C27.0536 32.7385 27.1017 32.619 27.1437 32.4974C27.6824 30.6521 28.0312 28.7565 28.1844 26.8402C28.3347 25.5373 28.3456 24.2221 28.217 22.9169C28.1426 22.1453 28.0451 21.3736 27.9986 20.5927C27.8824 18.7333 27.4968 16.9576 26.391 15.4096C25.7432 14.4958 24.9025 13.7357 23.9284 13.183C23.6032 12.9971 23.2687 12.9785 23.0549 13.3364C22.8412 13.6944 22.9852 13.9733 23.3198 14.1778C23.3662 14.2057 23.4173 14.2289 23.4638 14.2615C24.269 14.7473 24.9629 15.3974 25.5001 16.1696C26.0372 16.9417 26.4057 17.8184 26.5815 18.7426C26.8138 19.8675 26.916 21.0064 27.0461 22.1453C27.1716 24.0874 27.1203 26.0369 26.8928 27.9698C26.7162 29.3876 26.3677 30.7589 26.0704 32.1534C25.5203 33.9177 24.8305 35.6354 24.0074 37.2899C23.7472 37.7827 23.4638 38.2615 23.2175 38.7589C23.1752 38.821 23.1464 38.8912 23.1328 38.9652C23.1192 39.0391 23.1213 39.1151 23.1388 39.1882C23.1563 39.2613 23.1888 39.3299 23.2344 39.3896C23.28 39.4494 23.3376 39.499 23.4034 39.5352C23.4684 39.5815 23.5428 39.6129 23.6214 39.6273C23.6999 39.6416 23.7806 39.6384 23.8578 39.618C23.9349 39.5976 24.0067 39.5604 24.0679 39.5092C24.1291 39.4579 24.1782 39.3937 24.2119 39.3213C24.3652 39.0657 24.5139 38.81 24.6765 38.5497C25.5474 36.9889 26.2469 35.3384 26.7627 33.627C26.8041 33.5834 26.8356 33.5313 26.8548 33.4743C26.8741 33.4173 26.8807 33.3567 26.8742 33.2969Z" fill="#DE9B39"/>
  </g>
</svg>
