<svg width="80" height="63" viewBox="0 0 80 63" fill="none"
  xmlns="http://www.w3.org/2000/svg">
  <defs>
    <linearGradient id="paint0_linear_2796_7639" x1="11.0475" y1="11.1961" x2="44.9769" y2="11.1961" gradientUnits="userSpaceOnUse">
      <stop stop-color="#2BA8DF"/>
      <stop offset="0.51" stop-color="#0079C1"/>
      <stop offset="1" stop-color="#04679D"/>
    </linearGradient>
    <linearGradient id="paint1_linear_2796_7639" x1="17.2905" y1="16.6136" x2="62.4287" y2="16.6136" gradientUnits="userSpaceOnUse">
      <stop stop-color="#2BA8DF"/>
      <stop offset="0.54" stop-color="#0079C1"/>
      <stop offset="1" stop-color="#04679D"/>
    </linearGradient>
    <linearGradient id="paint2_linear_2796_7639" x1="501.723" y1="298.472" x2="1246.05" y2="298.472" gradientUnits="userSpaceOnUse">
      <stop stop-color="#2BA8DF"/>
      <stop offset="0.54" stop-color="#0079C1"/>
      <stop offset="1" stop-color="#04679D"/>
    </linearGradient>
    <linearGradient id="paint3_linear_2796_7639" x1="6340.4" y1="3592.59" x2="12935.4" y2="3592.59" gradientUnits="userSpaceOnUse">
      <stop stop-color="#2BA8DF"/>
      <stop offset="0.54" stop-color="#0079C1"/>
      <stop offset="1" stop-color="#04679D"/>
    </linearGradient>
  </defs>
  <path d="M4.57791 62.8328H2.4175L0 51.5281H1.80353L3.51114 60.1201L4.99617 51.5281H6.75366L4.57791 62.8328Z" fill="#0C5CA8"/>
  <path d="M12.5668 62.8328L9.54688 55.3105V62.8328H7.88916V51.5281H9.64665L12.4709 58.5618V51.5281H14.1286V62.8328H12.5668Z" fill="#0C5CA8"/>
  <path d="M21.9954 54.9565C21.9968 55.426 21.9335 55.8934 21.8074 56.3455C21.6834 56.794 21.4392 57.1999 21.1014 57.5191C20.7976 57.8208 20.4141 58.029 19.9962 58.1193C19.5808 58.2044 19.1578 58.2469 18.7337 58.2463H17.5825V62.8213H15.8442V51.5281H18.7337C19.9028 51.5281 20.7394 51.8116 21.2433 52.3785C21.7575 52.9441 21.9954 53.8022 21.9954 54.9565ZM20.1881 54.8257C20.1881 54.1485 20.0423 53.6983 19.7583 53.4751C19.3351 53.2156 18.8404 53.0983 18.3462 53.1403H17.5787V56.6379H18.3462C19.0446 56.6379 19.5281 56.5148 19.789 56.2532C20.0499 55.9915 20.1881 55.5336 20.1881 54.8257Z" fill="#0C5CA8"/>
  <path d="M26.3625 53.1442V62.8328H24.6281V53.1442H22.4485V51.5281H28.5652V53.1442H26.3625Z" fill="#0C5CA8"/>
  <path d="M39.2556 60.12C39.263 60.536 39.1833 60.9489 39.0216 61.332C38.8711 61.6778 38.6472 61.9864 38.3654 62.2362C38.0798 62.4889 37.7473 62.6824 37.3869 62.8057C36.9948 62.9367 36.5837 63.0017 36.1704 62.9981C35.1293 62.9981 34.3401 62.7147 33.8028 62.1478C33.223 61.4954 32.8572 60.68 32.7552 59.8122L34.4283 59.3235C34.4618 59.5745 34.5183 59.8218 34.5972 60.0623C34.6733 60.2945 34.7818 60.5147 34.9195 60.7164C35.052 60.9058 35.2234 61.0646 35.4222 61.182C35.657 61.3104 35.9225 61.3717 36.1896 61.359C36.3614 61.3717 36.5338 61.3471 36.6951 61.2867C36.8565 61.2263 37.0029 61.1317 37.1243 61.0092C37.2457 60.8868 37.3392 60.7394 37.3984 60.5773C37.4577 60.4151 37.4812 60.2421 37.4675 60.07C37.4691 59.726 37.3586 59.3909 37.1528 59.1157C36.9164 58.8076 36.6432 58.5298 36.3393 58.2885C36.0131 58.0191 35.6601 57.7498 35.2917 57.4881C34.9193 57.2219 34.569 56.9259 34.2441 56.6032C33.9204 56.2886 33.6462 55.9266 33.4306 55.5296C33.2362 55.1414 33.1271 54.7159 33.1105 54.2819C33.094 53.8478 33.1704 53.4152 33.3347 53.0132C33.4781 52.6781 33.6913 52.3777 33.9602 52.1321C34.2316 51.8868 34.5484 51.6972 34.8926 51.5742C35.2618 51.4412 35.6516 51.3748 36.0438 51.3779C36.4515 51.3709 36.8567 51.4427 37.2372 51.5896C37.5743 51.7267 37.8818 51.928 38.1428 52.1821C38.4062 52.4445 38.6264 52.7471 38.7952 53.0786C38.9753 53.4385 39.1131 53.8181 39.2058 54.2099L37.5404 54.6985C37.4905 54.5138 37.4252 54.3138 37.3485 54.1175C37.2778 53.9236 37.1795 53.7409 37.0569 53.575C36.9381 53.4231 36.794 53.2929 36.6309 53.1902C36.4554 53.0795 36.2511 53.0232 36.0438 53.0286C35.894 53.025 35.7451 53.0526 35.6064 53.1095C35.4677 53.1665 35.3423 53.2516 35.238 53.3595C35.1321 53.4674 35.049 53.5956 34.9937 53.7364C34.9383 53.8772 34.9118 54.0278 34.9156 54.1791C34.9146 54.5183 35.0282 54.8479 35.238 55.1141C35.4746 55.4174 35.7479 55.6901 36.0515 55.926C36.3777 56.1838 36.7269 56.4493 37.0991 56.7263C37.4718 56.9977 37.8221 57.2988 38.1467 57.6267C38.4713 57.9525 38.7444 58.3262 38.9563 58.7348C39.1636 59.1664 39.2661 59.6411 39.2556 60.12Z" fill="#0C5CA8"/>
  <path d="M47.2789 62.8329V56.6766C47.2789 56.5611 47.2789 56.4457 47.2789 56.3341C47.2727 56.2259 47.2494 56.1194 47.2098 56.0186C47.1707 55.924 47.1055 55.8426 47.0218 55.7839C46.9198 55.7161 46.7985 55.6837 46.6765 55.6915C46.4013 55.6921 46.136 55.7949 45.932 55.9801C45.7234 56.1469 45.5342 56.3366 45.3679 56.5457V62.8522H43.8023V56.6958C43.8023 56.5804 43.8023 56.4649 43.8023 56.3533C43.7967 56.2447 43.7721 56.1379 43.7294 56.0378C43.6917 55.9435 43.6277 55.8621 43.5452 55.8031C43.4428 55.7364 43.3218 55.704 43.1999 55.7108C42.935 55.711 42.679 55.8065 42.4784 55.9801C42.2766 56.1479 42.0938 56.3376 41.9335 56.5457V62.8522H40.3411V54.4102H41.9335V55.4915C42.2031 55.1784 42.5083 54.8982 42.843 54.6565C43.1812 54.4233 43.5838 54.3022 43.9942 54.3102C44.1598 54.2988 44.3259 54.3216 44.4823 54.3772C44.6388 54.4328 44.7822 54.52 44.9036 54.6334C45.1231 54.8717 45.2661 55.1707 45.3142 55.4915C45.6013 55.1842 45.9189 54.907 46.262 54.6642C46.6097 54.4259 47.0228 54.3022 47.4439 54.3102C47.6916 54.2997 47.9374 54.3583 48.1538 54.4795C48.3326 54.5846 48.4797 54.7362 48.5798 54.9181C48.6855 55.1087 48.7545 55.3176 48.7831 55.5338C48.8155 55.7723 48.8322 56.0126 48.833 56.2533V62.8329H47.2789Z" fill="#0C5CA8"/>
  <path d="M53.9334 62.8326C53.8731 62.6768 53.8331 62.5139 53.8144 62.3478C53.8144 62.1862 53.7914 62.0208 53.7914 61.8476C53.536 62.1273 53.2575 62.3847 52.9587 62.6172C52.6483 62.8464 52.2694 62.9631 51.8842 62.9481C51.607 62.9571 51.3325 62.8906 51.0899 62.7557C50.8771 62.6255 50.6971 62.4478 50.5642 62.2362C50.4235 62.0169 50.3258 61.7727 50.2764 61.5167C50.2197 61.2538 50.1914 60.9854 50.192 60.7164C50.1868 60.3723 50.2414 60.0298 50.3532 59.7044C50.4754 59.3858 50.6698 59.0999 50.9211 58.8695C51.321 58.4943 51.7834 58.1922 52.2872 57.9768C52.8167 57.7421 53.3194 57.5266 53.7914 57.3227V56.884C53.7912 56.7375 53.7835 56.5911 53.7684 56.4454C53.753 56.3123 53.7167 56.1824 53.6609 56.0606C53.605 55.9476 53.5169 55.8538 53.4076 55.7913C53.2718 55.7197 53.1197 55.6852 52.9664 55.6912C52.8204 55.6747 52.6728 55.7026 52.5428 55.7712C52.4128 55.8398 52.3063 55.946 52.2373 56.076C52.1075 56.3354 52.038 56.6208 52.0339 56.911H50.357C50.374 56.1854 50.6728 55.4951 51.1897 54.9871C51.7481 54.5262 52.4591 54.2927 53.1812 54.333C53.499 54.3313 53.8154 54.374 54.1214 54.46C54.4222 54.5545 54.6889 54.735 54.8889 54.9794C55.1156 55.2189 55.2596 55.5251 55.2994 55.8528C55.3347 56.1749 55.3526 56.4985 55.3532 56.8225V60.574C55.3532 60.9588 55.3532 61.3436 55.3532 61.7283C55.3642 62.1118 55.4196 62.4927 55.5182 62.8634L53.9334 62.8326ZM53.7914 58.4962C53.588 58.5963 53.3731 58.7117 53.1467 58.8502C52.9231 58.9822 52.7147 59.1383 52.5251 59.3158C52.3382 59.4883 52.1767 59.6865 52.0454 59.9045C51.9161 60.119 51.8496 60.3657 51.8535 60.6164C51.8512 60.8486 51.9209 61.0759 52.0531 61.2666C52.1182 61.3622 52.2068 61.4393 52.3103 61.4905C52.4138 61.5417 52.5288 61.5653 52.644 61.559C52.8884 61.5629 53.1267 61.4828 53.3194 61.332C53.5082 61.1844 53.6682 61.0031 53.7914 60.7972V58.4962Z" fill="#0C5CA8"/>
  <path d="M60.2151 56.0066C60.0886 55.9828 59.9601 55.9712 59.8313 55.972C59.5943 55.9593 59.3583 56.0112 59.1483 56.122C58.9855 56.2097 58.852 56.3435 58.7646 56.5068C58.6785 56.6897 58.6253 56.8864 58.6072 57.0878C58.584 57.3077 58.5724 57.5286 58.5727 57.7496V62.8133H56.9802V54.4098H58.5957V55.8642C58.7486 55.4318 58.9934 55.038 59.3133 54.7099C59.6726 54.4218 60.129 54.2839 60.5873 54.3251V56.1374C60.4687 56.0796 60.3438 56.0357 60.2151 56.0066Z" fill="#0C5CA8"/>
  <path d="M64.8274 62.9063C64.6517 62.9283 64.4748 62.9386 64.2978 62.9371C63.9821 62.9383 63.6675 62.8995 63.3615 62.8217C63.0596 62.7379 62.7913 62.5617 62.5941 62.3176C62.3796 62.0722 62.2527 61.7622 62.2334 61.4365C62.2103 61.0979 62.195 60.7747 62.195 60.463V55.8342H61.0016V54.4105H62.195V52.1019H63.7875V54.4105H65.2265V55.8342H63.776V60.3091C63.7626 60.6113 63.8301 60.9116 63.9717 61.1787C64.0614 61.2992 64.1817 61.3935 64.32 61.4517C64.4583 61.5099 64.6097 61.5299 64.7583 61.5096C64.8599 61.5113 64.9613 61.5036 65.0615 61.4865C65.142 61.4673 65.2341 61.4442 65.3454 61.4096V62.8332C65.1689 62.8679 64.9962 62.9063 64.8274 62.9063Z" fill="#0C5CA8"/>
  <path d="M72.1644 60.7244C72.0764 61.1532 71.9013 61.5592 71.6502 61.9172C71.4062 62.2615 71.0769 62.5361 70.6947 62.7137C70.2319 62.9164 69.7299 63.0137 69.225 62.9984C68.7308 63.0057 68.2405 62.9087 67.786 62.7137C67.3382 62.5074 66.9626 62.1709 66.7078 61.7479C66.5594 61.537 66.4466 61.303 66.3739 61.0553C66.2967 60.8043 66.2428 60.5467 66.2127 60.2858C66.1789 60.0229 66.1623 59.7582 66.1629 59.4932V55.5415C66.1629 55.2606 66.1629 54.9874 66.1629 54.7143C66.169 54.4464 66.1908 54.1792 66.2281 53.9139C66.2664 53.6513 66.3319 53.3933 66.4238 53.1444C66.518 52.8832 66.6471 52.6359 66.8075 52.4095C67.0795 52.0467 67.4498 51.7702 67.8743 51.613C68.2952 51.4492 68.7429 51.3657 69.1943 51.3667C69.6662 51.3568 70.1347 51.4487 70.5681 51.6361C70.9391 51.8035 71.2652 52.0566 71.5197 52.3748C71.7756 52.7032 71.9623 53.0802 72.0685 53.483C72.19 53.9345 72.2494 54.4005 72.245 54.8682V55.2106H70.5067C70.5067 54.9759 70.5067 54.7296 70.4722 54.4757C70.4528 54.2311 70.3958 53.991 70.3033 53.7639C70.2214 53.5544 70.0897 53.3681 69.9196 53.2213C69.7132 53.0702 69.461 52.9954 69.2058 53.0097C68.9421 52.9929 68.6806 53.0676 68.4652 53.2213C68.2934 53.3634 68.1612 53.5476 68.0815 53.7562C67.9955 53.9818 67.9437 54.2192 67.928 54.4603C67.928 54.7104 67.905 54.9567 67.905 55.1952V58.9622C67.905 59.1969 67.905 59.4585 67.905 59.7317C67.9132 59.9943 67.9624 60.254 68.0508 60.5013C68.1269 60.7313 68.2588 60.9389 68.4345 61.1054C68.6494 61.2831 68.9242 61.3713 69.202 61.3516C69.4807 61.3675 69.755 61.2768 69.9695 61.0977C70.157 60.9267 70.296 60.709 70.3724 60.4666C70.4594 60.2041 70.511 59.931 70.5259 59.6548C70.5259 59.3623 70.5566 59.1007 70.5566 58.8621H72.2872V59.2469C72.2972 59.7423 72.256 60.2375 72.1644 60.7244Z" fill="#0C5CA8"/>
  <path d="M78.1889 62.8209L77.7207 60.3622H75.3032L74.8658 62.8209H73.1774L75.3378 51.5124H77.7246L80.0001 62.8209H78.1889ZM76.4813 53.671L75.591 58.7346H77.3984L76.4813 53.671Z" fill="#0C5CA8"/>
  <path d="M30.9669 22.42C37.2304 15.942 45.0148 11.1436 53.607 8.46421C53.4612 8.51038 53.3154 8.55271 53.1734 8.60273C51.2945 5.44406 48.4778 2.95335 45.1175 1.47907C41.7571 0.00478923 38.0212 -0.379309 34.4325 0.380511C30.8437 1.14033 27.5815 3.00606 25.1024 5.71667C22.6233 8.42727 21.0513 11.8472 20.6062 15.4979C22.7213 15.8569 24.7371 16.6589 26.5223 17.8516C28.3075 19.0443 29.822 20.6009 30.9669 22.42Z" fill="url(#paint0_linear_2796_7639)"/>
  <path d="M30.9667 22.4198L31.0473 22.5391H33.7334C34.2611 22.5384 34.776 22.702 35.2069 23.0074C35.6379 23.3127 35.9637 23.7447 36.1394 24.2436H39.8424C40.1815 24.2433 40.5172 24.3112 40.8297 24.4434C41.1421 24.5756 41.4249 24.7693 41.6612 25.0132L41.7725 25.1248C50.3259 19.0415 59.4165 15.9633 64.5354 17.4408H64.497C64.5239 17.1599 64.5393 16.8752 64.5393 16.5905C64.5452 15.2619 64.2392 13.9506 63.6461 12.7626C63.0529 11.5746 62.1891 10.5433 61.1247 9.75207C60.0603 8.96086 58.8251 8.43199 57.5191 8.20823C56.213 7.98447 54.8728 8.07211 53.6068 8.46406C45.0145 11.1434 37.2301 15.9418 30.9667 22.4198Z" fill="url(#paint1_linear_2796_7639)"/>
  <path d="M18.5378 45.8451H24.0981C24.3399 45.3102 24.5893 44.7792 24.8656 44.2521C22.8966 45.2374 20.7374 45.7809 18.5378 45.8451Z" fill="url(#paint2_linear_2796_7639)"/>
  <path d="M64.5357 17.4412C59.4167 15.9752 50.3376 19.0572 41.7843 25.1366L42.168 25.5214H43.5341C44.0137 25.0058 44.6853 24.2286 45.3875 24.2286H48.5034C49.2363 24.2286 49.8618 25.102 50.3069 25.5214H51.0283C51.3008 25.1366 51.7075 24.2748 52.6554 24.2286H56.1089C56.4677 24.2289 56.8223 24.3051 57.1496 24.4523C57.477 24.5995 57.7696 24.8143 58.0084 25.0828L61.5771 29.0844C61.9948 29.5518 62.2258 30.1575 62.2256 30.7851C62.2256 31.0198 62.2256 31.7163 62.2256 31.824C62.1995 32.4056 61.9761 32.9608 61.5924 33.3977L59.363 36.2066C59.1242 36.5052 58.8217 36.7463 58.4777 36.9121C58.1336 37.0779 57.7569 37.1642 57.3752 37.1647H36.0398C35.8295 37.5971 35.502 37.9613 35.0948 38.2158C34.6876 38.4703 34.2172 38.6048 33.7374 38.6037H31.0513C29.5476 41.0275 27.4003 42.9834 24.8502 44.2522C24.5855 44.7793 24.336 45.3103 24.0828 45.8452H59.2325C59.4282 45.8452 59.6162 45.8452 59.8234 45.8452C63.2737 45.8475 66.6127 44.621 69.245 42.3845C71.8773 40.1479 73.632 37.0466 74.196 33.6335C74.7601 30.2204 74.097 26.7174 72.3249 23.7489C70.5528 20.7805 67.7869 18.5396 64.5203 17.4258L64.5357 17.4412Z" fill="url(#paint3_linear_2796_7639)"/>
  <path d="M59.6931 30.8042L56.1436 26.8026H52.6901L51.9226 28.2493H49.7891L48.565 26.8026H45.4682L44.129 28.2378H41.3278L39.9502 26.8103H33.8796V25.1173H29.7008C28.4617 22.509 26.3749 20.4009 23.783 19.139C21.1912 17.8772 18.2484 17.5368 15.4381 18.1737C12.6278 18.8105 10.117 20.3868 8.31822 22.6436C6.51942 24.9004 5.53955 27.7036 5.53955 30.5926C5.53955 33.4816 6.51942 36.2848 8.31822 38.5416C10.117 40.7984 12.6278 42.3747 15.4381 43.0116C18.2484 43.6484 21.1912 43.308 23.783 42.0462C26.3749 40.7844 28.4617 38.6762 29.7008 36.0679H33.8796V34.6289H57.3984L59.6164 31.8393H33.8796V30.8235L59.6931 30.8042ZM13.5649 35.3407C12.6234 35.3438 11.7022 35.0665 10.9181 34.544C10.134 34.0215 9.52222 33.2773 9.16035 32.4058C8.79848 31.5343 8.70281 30.5746 8.88546 29.6485C9.06811 28.7224 9.52085 27.8715 10.1863 27.2037C10.8518 26.5359 11.7 26.0813 12.6234 25.8974C13.5469 25.7135 14.504 25.8086 15.3734 26.1708C16.2429 26.5329 16.9855 27.1457 17.5072 27.9316C18.0289 28.7174 18.3062 29.6409 18.304 30.5849C18.304 31.8456 17.8048 33.0546 16.9162 33.9464C16.0275 34.8382 14.8221 35.3397 13.5649 35.3407Z" fill="#DE9B39"/>
</svg>