<svg width="24" height="24" viewBox="0 0 24 24" fill="none"
  xmlns="http://www.w3.org/2000/svg">
  <path d="M8.29 5.79C8.15048 5.79 8.04 5.67821 8.04 5.54V2.75C8.04 2.61179 8.15048 2.5 8.29 2.5C8.42952 2.5 8.54 2.61179 8.54 2.75V5.53C8.54 5.68255 8.42525 5.79 8.29 5.79Z" fill="#0C5CA8" stroke="#0C5CA8"/>
  <path d="M15.71 6.29C15.29 6.29 14.96 5.95 14.96 5.54V2.75C14.96 2.33 15.3 2 15.71 2C16.13 2 16.46 2.34 16.46 2.75V5.53C16.46 5.95 16.13 6.29 15.71 6.29Z" fill="#0C5CA8"/>
  <path d="M6.78364 7.83002L6.78371 7.82992C6.01733 7.29467 5.54 6.38032 5.54 5.41V5.31C5.54 4.94847 5.16619 4.70844 4.84155 4.83555L4.83618 4.84093L4.76361 4.87721C4.75954 4.87925 4.75766 4.88037 4.75538 4.88184C4.75371 4.88291 4.75123 4.88456 4.74739 4.88727C4.73457 4.89843 4.72284 4.90789 4.71291 4.91561C4.69616 4.92864 4.68005 4.94014 4.67207 4.94583L4.67062 4.94687C4.67016 4.9472 4.66971 4.94751 4.66929 4.94782L4.66242 4.95469L4.63891 4.97316C4.38959 5.16906 4.16869 5.39037 3.98468 5.62697L3.97225 5.64294L3.95858 5.65786C3.87783 5.74595 3.8066 5.84705 3.73583 5.96205L3.70506 6.01204L3.68797 6.02913C3.61988 6.12829 3.55362 6.25079 3.48721 6.38361L3.45093 6.45618L3.441 6.4661C3.38719 6.57432 3.35144 6.6505 3.32789 6.72704L3.31002 6.78513L3.28208 6.8317L3.2733 6.85544C3.26888 6.86758 3.26228 6.88558 3.25424 6.9057C3.20713 7.02347 3.17419 7.14482 3.13312 7.29883L3.13084 7.30738L3.13076 7.30736C3.09829 7.42103 3.07284 7.54691 3.05561 7.67608L3.05405 7.68781L3.05193 7.69944C3.03689 7.78217 3.02847 7.86932 3.01852 7.98859C3.0084 8.13033 3 8.25164 3 8.37V17.13C3 19.5439 4.95614 21.5 7.37 21.5H16.63C19.0439 21.5 21 19.5439 21 17.13V8.37C21 6.94655 20.3216 5.70118 19.2699 4.89997C18.937 4.65521 18.46 4.89534 18.46 5.31V5.41C18.46 6.79589 17.4645 8.12697 16.0016 8.27733L6.78364 7.83002ZM6.78364 7.83002L6.79265 7.83603M6.78364 7.83002L6.79265 7.83603M6.79265 7.83603C6.90892 7.91354 7.03289 7.97549 7.12646 8.02225L7.13639 8.02721C7.25797 8.088 7.38224 8.1382 7.50909 8.17673C7.65537 8.22497 7.8199 8.26352 8.00091 8.27772C8.19349 8.30076 8.38651 8.30076 8.57909 8.27772C8.75769 8.26371 8.92026 8.22599 9.06507 8.17865C9.20095 8.1406 9.33076 8.08927 9.45242 8.02281L9.45354 8.02225C9.54559 7.97625 9.66705 7.91555 9.78165 7.83981C10.5412 7.35943 11.04 6.50294 11.04 5.54V4.5C11.04 4.22614 11.2661 4 11.54 4H12.46C12.7339 4 12.96 4.22614 12.96 4.5V5.54C12.96 7.15238 14.3524 8.44819 16.0013 8.27736L6.79265 7.83603ZM3.66192 6.05521C3.6619 6.05523 3.6624 6.0547 3.66355 6.05355C3.66253 6.05462 3.66194 6.0552 3.66192 6.05521ZM7.36 17.92H12C12.7005 17.92 13.25 17.3518 13.25 16.67C13.25 15.9825 12.7048 15.41 12 15.41H7.36C6.66956 15.41 6.11 15.9782 6.11 16.67C6.11 17.3561 6.67386 17.92 7.36 17.92ZM7.36 14.21H14.78C15.4718 14.21 16.04 13.6504 16.04 12.96C16.04 12.2639 15.4761 11.7 14.78 11.7H7.36C6.66956 11.7 6.11 12.2682 6.11 12.96C6.11 13.6461 6.67386 14.21 7.36 14.21Z" fill="#0C5CA8" stroke="#0C5CA8"/>
</svg>
