<svg width="64" height="64" viewBox="0 0 64 64" fill="none"
  xmlns="http://www.w3.org/2000/svg">
  <defs>
    <clipPath id="clip0">
      <rect width="64" height="64" fill="white"/>
    </clipPath>
  </defs>
  <g clip-path="url(#clip0)">
    <path d="M38 8H7.33333C3.28 8 0 11.28 0 15.3333V48.6667C0 52.72 3.28 56 7.33333 56H24.9067C23.4667 52.96 22.6667 49.5733 22.6667 46L22.6933 45.3333H10C8.90667 45.3333 8 44.4267 8 43.3333C8 42.24 8.90667 41.3333 10 41.3333H23.1467C23.4667 39.7067 23.9733 38.1333 24.6133 36.6667H10C8.90667 36.6667 8 35.76 8 34.6667C8 33.5733 8.90667 32.6667 10 32.6667H26.88C28.08 30.9333 29.5467 29.36 31.1733 28H10C8.90667 28 8 27.0933 8 26C8 24.9067 8.90667 24 10 24H35.3333C35.8933 24 36.3733 24.2133 36.7467 24.5867C39.3867 23.44 42.2933 22.7733 45.3333 22.6933V15.3333C45.3333 11.28 42.0533 8 38 8Z" fill="#0F89CC"/>
    <path d="M32.6667 5.33333H29.7334C28.8534 2.26667 26.0267 0 22.6667 0C19.3067 0 16.4801 2.26667 15.6001 5.33333H12.6667C11.5734 5.33333 10.6667 6.24 10.6667 7.33333V12.6667C10.6667 15.2267 12.7734 17.3333 15.3334 17.3333H30.0001C32.5601 17.3333 34.6667 15.2267 34.6667 12.6667V7.33333C34.6667 6.24 33.7601 5.33333 32.6667 5.33333Z" fill="#1976D2"/>
    <path d="M36.7467 24.5867C34.72 25.4667 32.8533 26.616 31.1733 28H10C8.90667 28 8 27.0933 8 26C8 24.9067 8.90667 24 10 24H35.3333C35.8933 24 36.3733 24.2133 36.7467 24.5867Z" fill="white"/>
    <path d="M26.88 32.6666C26 33.92 25.2267 35.2533 24.6133 36.6666H10C8.90667 36.6666 8 35.76 8 34.6666C8 33.5733 8.90667 32.6666 10 32.6666H26.88Z" fill="white"/>
    <path d="M23.1467 41.3334C22.88 42.64 22.72 43.9734 22.6933 45.3334H10C8.90667 45.3334 8 44.4267 8 43.3334C8 42.24 8.90667 41.3334 10 41.3334H23.1467Z" fill="white"/>
    <path d="M10.6667 8H7.33333C3.28 8 0 11.28 0 15.3333V48.6667C0 52.72 3.28 56 7.33333 56H22.6667V46V45.3333H10C8.90667 45.3333 8 44.4267 8 43.3333C8 42.24 8.90667 41.3333 10 41.3333H22.6667V36.6667H10C8.90667 36.6667 8 35.76 8 34.6667C8 33.5733 8.90667 32.6667 10 32.6667H22.6667V28H10C8.90667 28 8 27.0933 8 26C8 24.9067 8.90667 24 10 24H22.6667V17.3333H15.3333C12.7733 17.3333 10.6667 15.2267 10.6667 12.6667V8Z" fill="#1D83D4"/>
    <path d="M22.6667 0C19.3067 0 16.4801 2.26667 15.6001 5.33333H12.6667C11.5734 5.33333 10.6667 6.24 10.6667 7.33333V8V12.6667C10.6667 15.2267 12.7734 17.3333 15.3334 17.3333H22.6667V0Z" fill="#1667B7"/>
    <path d="M22.6667 24H10C8.90667 24 8 24.9067 8 26C8 27.0933 8.90667 28 10 28H22.6667V24Z" fill="#EEECEC"/>
    <path d="M22.6667 32.6666H10C8.90667 32.6666 8 33.5733 8 34.6666C8 35.76 8.90667 36.6666 10 36.6666H22.6667V32.6666Z" fill="#EEECEC"/>
    <path d="M22.6667 41.3334H10C8.90667 41.3334 8 42.24 8 43.3334C8 44.4267 8.90667 45.3334 10 45.3334H22.6667V41.3334Z" fill="#EEECEC"/>
    <path d="M46 64C36.0747 64 28 55.928 28 46C28 36.072 36.0747 28 46 28C55.9253 28 64 36.072 64 46C64 55.928 55.9253 64 46 64Z" fill="#17A514"/>
    <path d="M43.3333 54C42.6266 54 41.9493 53.7174 41.448 53.2187L36.1146 47.8853C35.072 46.8427 35.072 45.1573 36.1146 44.1147C37.1573 43.072 38.8426 43.072 39.8853 44.1147L43.2026 47.432L50.6586 38.912C51.6293 37.808 53.312 37.6907 54.4213 38.6613C55.5306 39.6293 55.64 41.312 54.672 42.4213L45.3386 53.088C44.8533 53.6454 44.16 53.9734 43.4213 54H43.3333Z" fill="white"/>
    <path d="M46 28C36.0747 28 28 36.072 28 46C28 55.928 36.0747 64 46 64V52.3333L45.3387 53.088C44.8533 53.6453 44.16 53.9733 43.4213 54H43.3333C42.6267 54 41.9493 53.7173 41.448 53.2187L36.1147 47.8853C35.072 46.8427 35.072 45.1573 36.1147 44.1147C36.6347 43.5947 37.3173 43.3333 38 43.3333C38.6827 43.3333 39.3653 43.5947 39.8853 44.1147L43.2027 47.432L46 44.2347V28Z" fill="#159F12"/>
    <path d="M38 43.3334C37.3173 43.3334 36.6346 43.5947 36.1146 44.1147C35.072 45.1574 35.072 46.8427 36.1146 47.8854L41.448 53.2187C41.9493 53.72 42.6266 54 43.3333 54H43.4213C44.16 53.9734 44.8533 53.6454 45.3387 53.088L46 52.3334V44.2347L43.2026 47.432L39.8853 44.1147C39.3653 43.5947 38.6826 43.3334 38 43.3334Z" fill="#EEECEC"/>
  </g>
</svg>
