<svg width="100" height="100" viewBox="0 0 100 100" fill="none"
  xmlns="http://www.w3.org/2000/svg">
  <defs>
    <clipPath id="clip0">
      <rect width="57.1429" height="57.1429" fill="white" transform="translate(21.4285 21.4286)"/>
    </clipPath>
  </defs>
  <circle cx="50" cy="50" r="50" fill="#E8EFF5"/>
  <g clip-path="url(#clip0)">
    <path d="M55.357 28.5714H27.9761C24.357 28.5714 21.4285 31.5 21.4285 35.119V64.8809C21.4285 68.5 24.357 71.4286 27.9761 71.4286H43.6666C42.3808 68.7143 41.6666 65.6905 41.6666 62.5L41.6904 61.9047H30.357C29.3808 61.9047 28.5713 61.0952 28.5713 60.119C28.5713 59.1428 29.3808 58.3333 30.357 58.3333H42.0951C42.3809 56.8809 42.8332 55.4762 43.4047 54.1666H30.357C29.3808 54.1666 28.5713 53.3571 28.5713 52.3809C28.5713 51.4047 29.3808 50.5952 30.357 50.5952H45.4285C46.4999 49.0476 47.8094 47.6428 49.2618 46.4286H30.357C29.3808 46.4286 28.5713 45.619 28.5713 44.6428C28.5713 43.6666 29.3808 42.8571 30.357 42.8571H52.9761C53.4761 42.8571 53.9047 43.0476 54.238 43.3809C56.5951 42.3571 59.1904 41.7619 61.9047 41.6905V35.119C61.9047 31.5 58.9761 28.5714 55.357 28.5714V28.5714Z" fill="#0F89CC"/>
    <path d="M50.5952 26.1905H47.9762C47.1905 23.4524 44.6667 21.4286 41.6667 21.4286C38.6667 21.4286 36.1429 23.4524 35.3572 26.1905H32.7381C31.7619 26.1905 30.9524 27 30.9524 27.9762V32.7381C30.9524 35.0238 32.8333 36.9048 35.1191 36.9048H48.2143C50.5 36.9048 52.381 35.0238 52.381 32.7381V27.9762C52.381 27 51.5714 26.1905 50.5952 26.1905Z" fill="#1976D2"/>
    <path d="M54.238 43.381C52.4284 44.1667 50.7618 45.1929 49.2618 46.4286H30.357C29.3808 46.4286 28.5713 45.6191 28.5713 44.6429C28.5713 43.6667 29.3808 42.8572 30.357 42.8572H52.9761C53.4761 42.8572 53.9046 43.0477 54.238 43.381Z" fill="white"/>
    <path d="M45.4284 50.5953C44.6427 51.7143 43.9522 52.9048 43.4046 54.1667H30.357C29.3808 54.1667 28.5713 53.3572 28.5713 52.381C28.5713 51.4048 29.3808 50.5953 30.357 50.5953H45.4284Z" fill="white"/>
    <path d="M42.0951 58.3334C41.857 59.5 41.7141 60.6905 41.6903 61.9048H30.357C29.3808 61.9048 28.5713 61.0953 28.5713 60.1191C28.5713 59.1429 29.3808 58.3334 30.357 58.3334H42.0951Z" fill="white"/>
    <path d="M30.9523 28.5714H27.9761C24.357 28.5714 21.4285 31.5 21.4285 35.119V64.8809C21.4285 68.5 24.357 71.4286 27.9761 71.4286H41.6666V62.5V61.9047H30.357C29.3808 61.9047 28.5713 61.0952 28.5713 60.119C28.5713 59.1428 29.3808 58.3333 30.357 58.3333H41.6666V54.1666H30.357C29.3808 54.1666 28.5713 53.3571 28.5713 52.3809C28.5713 51.4047 29.3808 50.5952 30.357 50.5952H41.6666V46.4286H30.357C29.3808 46.4286 28.5713 45.619 28.5713 44.6428C28.5713 43.6666 29.3808 42.8571 30.357 42.8571H41.6666V36.9047H35.1189C32.8332 36.9047 30.9523 35.0238 30.9523 32.7381V28.5714Z" fill="#1D83D4"/>
    <path d="M41.6667 21.4286C38.6667 21.4286 36.1429 23.4524 35.3572 26.1905H32.7381C31.7619 26.1905 30.9524 27 30.9524 27.9762V28.5714V32.7381C30.9524 35.0238 32.8333 36.9048 35.1191 36.9048H41.6667V21.4286Z" fill="#1667B7"/>
    <path d="M41.6665 42.8572H30.357C29.3808 42.8572 28.5713 43.6667 28.5713 44.6429C28.5713 45.6191 29.3808 46.4286 30.357 46.4286H41.6665V42.8572Z" fill="#EEECEC"/>
    <path d="M41.6665 50.5952H30.357C29.3808 50.5952 28.5713 51.4047 28.5713 52.3809C28.5713 53.3571 29.3808 54.1666 30.357 54.1666H41.6665V50.5952Z" fill="#EEECEC"/>
    <path d="M41.6665 58.3334H30.357C29.3808 58.3334 28.5713 59.1429 28.5713 60.1191C28.5713 61.0953 29.3808 61.9048 30.357 61.9048H41.6665V58.3334Z" fill="#EEECEC"/>
    <path d="M62.4999 78.5714C53.638 78.5714 46.4285 71.3643 46.4285 62.5C46.4285 53.6357 53.638 46.4286 62.4999 46.4286C71.3618 46.4286 78.5713 53.6357 78.5713 62.5C78.5713 71.3643 71.3618 78.5714 62.4999 78.5714Z" fill="#E7A23D"/>
    <path d="M60.119 69.6429C59.4881 69.6429 58.8833 69.3905 58.4357 68.9453L53.6738 64.1833C52.7428 63.2524 52.7428 61.7476 53.6738 60.8167C54.6048 59.8857 56.1095 59.8857 57.0405 60.8167L60.0024 63.7786L66.6595 56.1714C67.5262 55.1857 69.0286 55.081 70.019 55.9476C71.0095 56.8119 71.1071 58.3143 70.2428 59.3048L61.9095 68.8286C61.4762 69.3262 60.8571 69.6191 60.1976 69.6429H60.119Z" fill="white"/>
    <path d="M62.4999 46.4286C53.638 46.4286 46.4285 53.6357 46.4285 62.5C46.4285 71.3643 53.638 78.5714 62.4999 78.5714V68.1548L61.9094 68.8286C61.4761 69.3262 60.857 69.6191 60.1975 69.6429H60.1189C59.488 69.6429 58.8832 69.3905 58.4356 68.9453L53.6737 64.1834C52.7428 63.2524 52.7428 61.7476 53.6737 60.8167C54.138 60.3524 54.7475 60.1191 55.357 60.1191C55.9666 60.1191 56.5761 60.3524 57.0404 60.8167L60.0023 63.7786L62.4999 60.9238V46.4286Z" fill="#DE9B39"/>
    <path d="M55.3571 60.1191C54.7476 60.1191 54.1381 60.3524 53.6738 60.8167C52.7428 61.7476 52.7428 63.2524 53.6738 64.1834L58.4357 68.9453C58.8833 69.3929 59.4881 69.6429 60.119 69.6429H60.1976C60.8571 69.6191 61.4762 69.3262 61.9095 68.8286L62.5 68.1548V60.9238L60.0024 63.7786L57.0405 60.8167C56.5762 60.3524 55.9667 60.1191 55.3571 60.1191V60.1191Z" fill="#EEECEC"/>
  </g>
</svg>
