<svg width="24" height="26" viewBox="0 0 24 26" fill="none" xmlns="http://www.w3.org/2000/svg">
<path d="M13.374 1.0357C12.603 0.321433 11.397 0.321433 10.626 1.0357L0.93896 10.01C0.3396 10.5653 0 11.3379 0 12.1461V23.0604C0 24.6838 1.34314 26 3 26H6C7.65686 26 9 24.6838 9 23.0604V18.161C9 17.6199 9.44772 17.1812 10 17.1812H14C14.5523 17.1812 15 17.6199 15 18.161V23.0604C15 24.6838 16.3432 26 18 26H21C22.6568 26 24 24.6838 24 23.0604V12.1461C24 11.3379 23.6604 10.5653 23.061 10.01L13.374 1.0357Z" fill="#0C5CA8"/>
</svg>
