<svg width="24" height="25" viewBox="0 0 24 25" fill="none"
  xmlns="http://www.w3.org/2000/svg">
  <path d="M11.2633 2.43908L3.05327 11.1291C2.74327 11.4591 2.44327 12.1091 2.38327 12.5591L2.01327 15.7991C1.88327 16.9691 2.72327 17.7691 3.88327 17.5691L7.10327 17.0191C7.55327 16.9391 8.18327 16.6091 8.49327 16.2691L16.7033 7.57908C18.1233 6.07908 18.7633 4.36908 16.5533 2.27908C14.3533 0.209084 12.6833 0.939084 11.2633 2.43908Z" stroke="#777C8B" stroke-width="1.5" stroke-miterlimit="10" stroke-linecap="round" stroke-linejoin="round"/>
  <path d="M23.3262 15L16.1088 15C14.5433 15 13.2696 16.2726 13.2696 17.8367C13.2697 19.4008 14.5433 20.6733 16.1088 20.6733C16.9311 20.6733 17.6001 21.3417 17.6001 22.1633C17.6001 22.985 16.931 23.6535 16.1088 23.6535H1.67383C1.3017 23.6535 1 23.9549 1 24.3268C1 24.6986 1.3017 25 1.67383 25H16.1088C17.6742 25 18.9478 23.7275 18.9478 22.1633C18.9478 20.5993 17.6742 19.3268 16.1088 19.3268C15.2864 19.3268 14.6173 18.6583 14.6173 17.8367C14.6173 17.015 15.2864 16.3465 16.1088 16.3465L23.3262 16.3465C23.6983 16.3465 24 16.0451 24 15.6732C24 15.3014 23.6983 15 23.3262 15Z" fill="#777C8B"/>
  <path d="M9.89331 3.88904C10.3233 6.64904 12.5633 8.75904 15.3433 9.03904" stroke="#777C8B" stroke-width="1.5" stroke-miterlimit="10" stroke-linecap="round" stroke-linejoin="round"/>
</svg>
