<svg width="24" height="25" viewBox="0 0 24 25" fill="none"
  xmlns="http://www.w3.org/2000/svg">
  <path d="M17.5262 1.47381C15.5862 -0.46619 13.6862 -0.51619 11.6962 1.47381L10.4862 2.68381C10.3862 2.78381 10.3462 2.94381 10.3862 3.08381C11.1462 5.73381 13.2662 7.85381 15.9162 8.61381C15.9562 8.62381 15.9962 8.63381 16.0362 8.63381C16.1462 8.63381 16.2462 8.59381 16.3262 8.51381L17.5262 7.30381C18.5162 6.32381 18.9962 5.37381 18.9962 4.41381C19.0062 3.42381 18.5262 2.46381 17.5262 1.47381Z" fill="#0F89CC"/>
  <path d="M14.1162 9.52382C13.8262 9.38382 13.5462 9.24382 13.2762 9.08382C13.0562 8.95382 12.8462 8.81382 12.6362 8.66382C12.4662 8.55382 12.2662 8.39382 12.0762 8.23382C12.0562 8.22382 11.9862 8.16382 11.9062 8.08382C11.5762 7.80382 11.2062 7.44382 10.8762 7.04382C10.8462 7.02382 10.7962 6.95382 10.7262 6.86382C10.6262 6.74382 10.4562 6.54382 10.3062 6.31382C10.1862 6.16382 10.0462 5.94382 9.91618 5.72382C9.75618 5.45382 9.61618 5.18382 9.47618 4.90382C9.45499 4.85843 9.4345 4.81326 9.41462 4.76836C9.26705 4.43504 8.83241 4.3376 8.57465 4.59535L2.84618 10.3238C2.71618 10.4538 2.59618 10.7038 2.56618 10.8738L2.02618 14.7038C1.92618 15.3838 2.11618 16.0238 2.53618 16.4538C2.89618 16.8038 3.39618 16.9938 3.93618 16.9938C4.05618 16.9938 4.17618 16.9838 4.29618 16.9638L8.13618 16.4238C8.31618 16.3938 8.56618 16.2738 8.68618 16.1438L14.4075 10.4225C14.667 10.163 14.5691 9.71749 14.2315 9.57343C14.1935 9.55722 14.1551 9.54069 14.1162 9.52382Z" fill="#0F89CC"/>
  <path d="M22.6873 14L15.3532 14C13.7624 14 12.4681 15.2943 12.4681 16.8851C12.4682 18.4758 13.7624 19.77 15.3532 19.77C16.1888 19.77 16.8687 20.4499 16.8687 21.2855C16.8687 22.1212 16.1888 22.8011 15.3532 22.8011H0.684728C0.306576 22.8011 0 23.1077 0 23.4858C0 23.864 0.306576 24.1705 0.684728 24.1705H15.3532C16.944 24.1705 18.2381 22.8763 18.2381 21.2855C18.2381 19.6947 16.9439 18.4006 15.3532 18.4006C14.5175 18.4006 13.8376 17.7207 13.8376 16.8851C13.8376 16.0494 14.5175 15.3695 15.3532 15.3695L22.6873 15.3695C23.0655 15.3695 23.3721 15.0629 23.3721 14.6847C23.3721 14.3066 23.0655 14 22.6873 14Z" fill="#0F89CC"/>
</svg>
